G04 #@! TF.FileFunction,Soldermask,Bot*
%FSLAX46Y46*%
G04 Gerber Fmt 4.6, Leading zero omitted, Abs format (unit mm)*
G04 Created by KiCad (PCBNEW 4.0.7) date 05/25/18 22:12:56*
%MOMM*%
%LPD*%
G01*
G04 APERTURE LIST*
%ADD10C,0.100000*%
%ADD11C,0.150000*%
%ADD12R,1.500000X2.900000*%
%ADD13O,1.500000X2.900000*%
%ADD14R,2.686000X1.924000*%
%ADD15O,2.686000X1.924000*%
%ADD16O,2.400000X1.924000*%
%ADD17R,2.400000X1.924000*%
%ADD18R,2.200000X2.200000*%
%ADD19O,2.200000X2.000000*%
%ADD20O,1.900000X2.200000*%
%ADD21C,8.900000*%
%ADD22R,2.000000X2.000000*%
%ADD23C,2.000000*%
%ADD24C,3.600000*%
%ADD25C,2.200000*%
%ADD26C,2.400000*%
%ADD27R,2.398980X2.398980*%
%ADD28R,2.400000X2.400000*%
%ADD29O,2.000000X2.200000*%
%ADD30O,2.400000X1.900000*%
%ADD31R,2.400000X1.900000*%
%ADD32O,1.900000X2.400000*%
%ADD33C,1.900000*%
%ADD34R,1.598880X1.598880*%
%ADD35R,0.806400X1.314400*%
%ADD36R,1.314400X0.806400*%
%ADD37C,1.965000*%
%ADD38C,2.050000*%
%ADD39R,2.300000X2.300000*%
%ADD40R,3.399740X3.399740*%
%ADD41C,3.399740*%
G04 APERTURE END LIST*
D10*
D11*
X22000000Y-135000000D02*
G75*
G03X25000000Y-138000000I3000000J0D01*
G01*
X118000000Y-138000000D02*
G75*
G03X121000000Y-135000000I0J3000000D01*
G01*
X121000000Y-50000000D02*
G75*
G03X118000000Y-47000000I-3000000J0D01*
G01*
X25000000Y-47000000D02*
G75*
G03X22000000Y-50000000I0J-3000000D01*
G01*
X118000000Y-138000000D02*
X25000000Y-138000000D01*
X121000000Y-50000000D02*
X121000000Y-135000000D01*
X25000000Y-47000000D02*
X118000000Y-47000000D01*
X22000000Y-135000000D02*
X22000000Y-50000000D01*
D12*
X24800000Y-72300000D03*
D13*
X26800000Y-72300000D03*
X28800000Y-72300000D03*
X30800000Y-72300000D03*
X32800000Y-72300000D03*
X34800000Y-72300000D03*
X36800000Y-72300000D03*
X38800000Y-72300000D03*
X38800000Y-87700000D03*
X36800000Y-87600000D03*
X34800000Y-87700000D03*
X32800000Y-87700000D03*
X30800000Y-87700000D03*
X28800000Y-87700000D03*
X26800000Y-87700000D03*
X24800000Y-87700000D03*
D14*
X40106000Y-123800000D03*
D15*
X40106000Y-121260000D03*
X40106000Y-118720000D03*
X40106000Y-116180000D03*
X40106000Y-113640000D03*
X40106000Y-111100000D03*
X40106000Y-108560000D03*
X40106000Y-106020000D03*
X43154000Y-123800000D03*
X43154000Y-121260000D03*
X43154000Y-118720000D03*
X43154000Y-116180000D03*
X43154000Y-113640000D03*
X43154000Y-111100000D03*
X43154000Y-108560000D03*
X43154000Y-106020000D03*
D16*
X101200000Y-55220000D03*
X101200000Y-57760000D03*
X101200000Y-60300000D03*
X101200000Y-62840000D03*
X101200000Y-65380000D03*
X101200000Y-67920000D03*
X101200000Y-70460000D03*
D17*
X101200000Y-73000000D03*
D18*
X116800000Y-118220000D03*
D19*
X116800000Y-115680000D03*
X116800000Y-113140000D03*
X116800000Y-110600000D03*
D18*
X26860000Y-69100000D03*
D20*
X29400000Y-69100000D03*
X31940000Y-69100000D03*
X34480000Y-69100000D03*
X37020000Y-69100000D03*
D18*
X43040000Y-56200000D03*
D20*
X40500000Y-56200000D03*
X37960000Y-56200000D03*
X35420000Y-56200000D03*
X32880000Y-56200000D03*
X30340000Y-56200000D03*
D21*
X30500000Y-103500000D03*
D22*
X77400000Y-89330000D03*
D23*
X77400000Y-91870000D03*
D24*
X117000000Y-51000000D03*
X26000000Y-133000000D03*
D18*
X76485981Y-68593021D03*
D25*
X79025981Y-68593021D03*
X81565981Y-68593021D03*
D18*
X76485980Y-74593021D03*
D25*
X79025980Y-74593021D03*
X81565980Y-74593021D03*
X95800000Y-55700000D03*
D22*
X117200000Y-71730000D03*
D23*
X117200000Y-74270000D03*
D22*
X109000000Y-71730000D03*
D23*
X109000000Y-74270000D03*
D26*
X113200000Y-107510000D03*
D27*
X113200000Y-101160000D03*
D18*
X66390000Y-131000000D03*
D25*
X63850000Y-131000000D03*
X61310000Y-131000000D03*
X58770000Y-131000000D03*
X56230000Y-131000000D03*
X53690000Y-131000000D03*
X51150000Y-131000000D03*
X48610000Y-131000000D03*
X114100000Y-96600000D03*
D18*
X76485981Y-71593020D03*
D25*
X79025981Y-71593020D03*
X81565981Y-71593020D03*
D18*
X76485981Y-77593021D03*
D25*
X79025981Y-77593021D03*
X81565981Y-77593021D03*
D22*
X105330000Y-94600000D03*
D23*
X107870000Y-94600000D03*
D22*
X107800000Y-103200000D03*
D23*
X107800000Y-105740000D03*
D26*
X92600000Y-96540000D03*
X92600000Y-94000000D03*
D28*
X92600000Y-85500000D03*
X92600000Y-82960000D03*
X74100000Y-83000000D03*
X74100000Y-85540000D03*
D26*
X74100000Y-94040000D03*
X74100000Y-96540000D03*
D24*
X117000000Y-133000000D03*
X26000000Y-51000000D03*
D25*
X24000000Y-111900000D03*
D18*
X80280000Y-50000000D03*
D25*
X77740000Y-50000000D03*
D29*
X75200000Y-50000000D03*
X72660000Y-50000000D03*
D25*
X70120000Y-50000000D03*
D18*
X25500000Y-56460000D03*
D25*
X25500000Y-59000000D03*
D18*
X110270000Y-51000000D03*
D25*
X107730000Y-51000000D03*
D18*
X116800000Y-92080000D03*
D25*
X116800000Y-89540000D03*
X116800000Y-87000000D03*
X116800000Y-84460000D03*
D18*
X103520000Y-51000000D03*
D25*
X100980000Y-51000000D03*
X111300000Y-135800000D03*
D18*
X106601183Y-113756224D03*
D25*
X104061183Y-113756224D03*
D18*
X42940000Y-50200000D03*
D25*
X40400000Y-50200000D03*
X37860000Y-50200000D03*
X35320000Y-50200000D03*
D18*
X116800000Y-121860000D03*
D25*
X116800000Y-124400000D03*
X116800000Y-126940000D03*
D18*
X54440000Y-50100000D03*
D25*
X51900000Y-50100000D03*
X49360000Y-50100000D03*
X46820000Y-50100000D03*
D18*
X116800000Y-100600000D03*
D25*
X116800000Y-103140000D03*
X116800000Y-105680000D03*
D18*
X63670000Y-51000000D03*
D25*
X61130000Y-51000000D03*
D18*
X29160000Y-91300000D03*
D25*
X31700000Y-91300000D03*
X34240000Y-91300000D03*
D28*
X109131183Y-113756224D03*
D26*
X101531183Y-113756224D03*
D30*
X111150000Y-79310000D03*
D31*
X111150000Y-81850000D03*
D30*
X111150000Y-84390000D03*
X111150000Y-86930000D03*
X111150000Y-92010000D03*
X111150000Y-94550000D03*
X111150000Y-89470000D03*
D31*
X111150000Y-97090000D03*
D30*
X98050000Y-92010000D03*
X98050000Y-79310000D03*
X98050000Y-81850000D03*
X98050000Y-86930000D03*
X98050000Y-97090000D03*
X98050000Y-84390000D03*
X98050000Y-89470000D03*
X98050000Y-94550000D03*
D32*
X100790000Y-97390000D03*
X102060000Y-95520000D03*
X103330000Y-97390000D03*
D33*
X118500000Y-81400000D03*
X77200000Y-62500000D03*
X70500000Y-62500000D03*
X73100000Y-62500000D03*
X81600000Y-65950000D03*
X66000000Y-62500000D03*
X69900000Y-86900000D03*
X66900000Y-86900000D03*
X23400000Y-63800000D03*
X38800000Y-91300000D03*
D25*
X24003000Y-91313000D03*
X119200000Y-124400000D03*
X57940000Y-112400000D03*
X55400000Y-112400000D03*
X52860000Y-112400000D03*
D18*
X42980000Y-131100000D03*
D25*
X40440000Y-131100000D03*
X37900000Y-131100000D03*
X35360000Y-131100000D03*
X32820000Y-131100000D03*
D34*
X58000000Y-119950980D03*
X58000000Y-122049020D03*
X55400000Y-119950980D03*
X55400000Y-122049020D03*
X52800000Y-119950980D03*
X52800000Y-122049020D03*
D35*
X23652000Y-126000000D03*
X24414000Y-126000000D03*
X25176000Y-126000000D03*
X25938000Y-126000000D03*
X26700000Y-126000000D03*
D36*
X31764760Y-125441200D03*
X31764760Y-124679200D03*
X31764760Y-123917200D03*
X31764760Y-123155200D03*
X31764760Y-122393200D03*
X31764760Y-121631200D03*
X31764760Y-120869200D03*
X31764760Y-120107200D03*
X31764760Y-119345200D03*
X31764760Y-118583200D03*
X31764760Y-117821200D03*
X31764760Y-117059200D03*
D35*
X30515080Y-116500400D03*
X29753080Y-116500400D03*
X28991080Y-116500400D03*
X28229080Y-116500400D03*
D37*
X73660000Y-129540000D03*
X76200000Y-129540000D03*
X78740000Y-129540000D03*
X81280000Y-129540000D03*
X83820000Y-129540000D03*
X86360000Y-129540000D03*
X88900000Y-129540000D03*
X91440000Y-129540000D03*
X93980000Y-129540000D03*
X96520000Y-129540000D03*
X99060000Y-129540000D03*
D25*
X81000000Y-61900000D03*
D38*
X118500000Y-78900000D03*
D39*
X71120000Y-127000000D03*
X73660000Y-127000000D03*
X76200000Y-127000000D03*
X78740000Y-127000000D03*
X81280000Y-127000000D03*
X83820000Y-127000000D03*
X86360000Y-127000000D03*
X88900000Y-127000000D03*
X91440000Y-127000000D03*
X93980000Y-127000000D03*
X96520000Y-127000000D03*
X99060000Y-127000000D03*
X101600000Y-127000000D03*
D37*
X68580000Y-114300000D03*
X71120000Y-114300000D03*
X73660000Y-114300000D03*
X76200000Y-114300000D03*
X78740000Y-114300000D03*
X81280000Y-114300000D03*
X83820000Y-114300000D03*
X86360000Y-114300000D03*
X88900000Y-114300000D03*
X91440000Y-114300000D03*
X93980000Y-114300000D03*
D39*
X66040000Y-116840000D03*
X68580000Y-116840000D03*
X71120000Y-116840000D03*
X73660000Y-116840000D03*
X76200000Y-116840000D03*
X78740000Y-116840000D03*
X81280000Y-116840000D03*
X83820000Y-116840000D03*
X86360000Y-116840000D03*
X88900000Y-116840000D03*
X91440000Y-116840000D03*
X93980000Y-116840000D03*
X96520000Y-116840000D03*
X68580000Y-121920000D03*
X71120000Y-121920000D03*
X73660000Y-121920000D03*
X76200000Y-121920000D03*
X78740000Y-121920000D03*
X81280000Y-121920000D03*
X83820000Y-121920000D03*
X86360000Y-121920000D03*
X88900000Y-121920000D03*
X91440000Y-121920000D03*
X93980000Y-121920000D03*
X96520000Y-121920000D03*
X99060000Y-121920000D03*
D37*
X52070000Y-102870000D03*
X54610000Y-102870000D03*
X57150000Y-102870000D03*
X59690000Y-102870000D03*
X62230000Y-102870000D03*
X52070000Y-105410000D03*
X54610000Y-105410000D03*
X57150000Y-105410000D03*
X59690000Y-105410000D03*
X62230000Y-105410000D03*
X73660000Y-132080000D03*
X76200000Y-132080000D03*
X78740000Y-132080000D03*
X81280000Y-132080000D03*
X83820000Y-132080000D03*
X86360000Y-132080000D03*
X88900000Y-132080000D03*
X91440000Y-132080000D03*
X93980000Y-132080000D03*
X96520000Y-132080000D03*
X99060000Y-132080000D03*
D39*
X66040000Y-119380000D03*
X68580000Y-119380000D03*
X71120000Y-119380000D03*
X73660000Y-119380000D03*
X76200000Y-119380000D03*
X78740000Y-119380000D03*
X81280000Y-119380000D03*
X83820000Y-119380000D03*
X86360000Y-119380000D03*
X88900000Y-119380000D03*
X91440000Y-119380000D03*
X93980000Y-119380000D03*
X96520000Y-119380000D03*
X71120000Y-124460000D03*
X73660000Y-124460000D03*
X76200000Y-124460000D03*
X78740000Y-124460000D03*
X81280000Y-124460000D03*
X83820000Y-124460000D03*
X86360000Y-124460000D03*
X88900000Y-124460000D03*
X91440000Y-124460000D03*
X93980000Y-124460000D03*
X96520000Y-124460000D03*
X99060000Y-124460000D03*
X101600000Y-124460000D03*
D37*
X68580000Y-111760000D03*
X71120000Y-111760000D03*
X73660000Y-111760000D03*
X76200000Y-111760000D03*
X78740000Y-111760000D03*
X81280000Y-111760000D03*
X83820000Y-111760000D03*
X86360000Y-111760000D03*
X88900000Y-111760000D03*
X91440000Y-111760000D03*
X93980000Y-111760000D03*
D33*
X99900000Y-102600000D03*
D40*
X115700000Y-58500000D03*
D41*
X115700000Y-63580000D03*
M02*
