G04 #@! TF.FileFunction,Soldermask,Top*
%FSLAX46Y46*%
G04 Gerber Fmt 4.6, Leading zero omitted, Abs format (unit mm)*
G04 Created by KiCad (PCBNEW 4.0.7) date 05/25/18 22:12:56*
%MOMM*%
%LPD*%
G01*
G04 APERTURE LIST*
%ADD10C,0.100000*%
%ADD11C,0.150000*%
%ADD12R,1.500000X2.900000*%
%ADD13O,1.500000X2.900000*%
%ADD14R,2.686000X1.924000*%
%ADD15O,2.686000X1.924000*%
%ADD16O,2.400000X1.924000*%
%ADD17R,2.400000X1.924000*%
%ADD18R,2.200000X2.200000*%
%ADD19O,2.200000X2.000000*%
%ADD20O,1.900000X2.200000*%
%ADD21R,1.847800X1.349960*%
%ADD22R,1.900000X0.950000*%
%ADD23O,1.900000X0.950000*%
%ADD24O,0.950000X1.900000*%
%ADD25C,8.900000*%
%ADD26R,2.000000X2.000000*%
%ADD27C,2.000000*%
%ADD28R,1.847800X1.548080*%
%ADD29R,1.548080X1.847800*%
%ADD30R,1.349960X1.847800*%
%ADD31C,3.600000*%
%ADD32C,2.200000*%
%ADD33C,2.400000*%
%ADD34R,2.398980X2.398980*%
%ADD35R,2.398980X0.999440*%
%ADD36O,2.398980X0.999440*%
%ADD37R,1.300000X1.700000*%
%ADD38R,1.200000X1.700000*%
%ADD39R,1.700000X1.300000*%
%ADD40R,1.700000X1.200000*%
%ADD41R,2.599640X2.000200*%
%ADD42R,3.500000X0.999440*%
%ADD43O,3.500000X0.999440*%
%ADD44R,2.400000X2.400000*%
%ADD45O,2.000000X2.200000*%
%ADD46R,1.200000X0.900000*%
%ADD47R,1.200000X0.800000*%
%ADD48R,1.349960X1.398220*%
%ADD49R,1.398220X1.349960*%
%ADD50R,1.500000X2.500000*%
%ADD51R,3.900000X2.500000*%
%ADD52R,1.200000X1.100000*%
%ADD53R,1.100000X1.100000*%
%ADD54R,1.200000X1.000000*%
%ADD55R,1.100000X1.000000*%
%ADD56R,0.800000X1.200000*%
%ADD57R,0.999440X1.949400*%
%ADD58O,0.999440X1.949400*%
%ADD59O,2.400000X1.900000*%
%ADD60R,2.400000X1.900000*%
%ADD61O,1.900000X2.400000*%
%ADD62R,1.598880X1.847800*%
%ADD63C,1.900000*%
%ADD64R,1.300000X1.200000*%
%ADD65R,3.747720X1.548080*%
%ADD66C,1.965000*%
%ADD67C,2.050000*%
%ADD68R,2.300000X2.300000*%
%ADD69R,1.799540X3.897580*%
%ADD70R,0.800000X1.000000*%
%ADD71R,3.399740X3.399740*%
%ADD72C,3.399740*%
%ADD73R,1.300000X1.600000*%
G04 APERTURE END LIST*
D10*
D11*
X22000000Y-135000000D02*
G75*
G03X25000000Y-138000000I3000000J0D01*
G01*
X118000000Y-138000000D02*
G75*
G03X121000000Y-135000000I0J3000000D01*
G01*
X121000000Y-50000000D02*
G75*
G03X118000000Y-47000000I-3000000J0D01*
G01*
X25000000Y-47000000D02*
G75*
G03X22000000Y-50000000I0J-3000000D01*
G01*
X118000000Y-138000000D02*
X25000000Y-138000000D01*
X121000000Y-50000000D02*
X121000000Y-135000000D01*
X25000000Y-47000000D02*
X118000000Y-47000000D01*
X22000000Y-135000000D02*
X22000000Y-50000000D01*
D12*
X24800000Y-72300000D03*
D13*
X26800000Y-72300000D03*
X28800000Y-72300000D03*
X30800000Y-72300000D03*
X32800000Y-72300000D03*
X34800000Y-72300000D03*
X36800000Y-72300000D03*
X38800000Y-72300000D03*
X38800000Y-87700000D03*
X36800000Y-87600000D03*
X34800000Y-87700000D03*
X32800000Y-87700000D03*
X30800000Y-87700000D03*
X28800000Y-87700000D03*
X26800000Y-87700000D03*
X24800000Y-87700000D03*
D14*
X40106000Y-123800000D03*
D15*
X40106000Y-121260000D03*
X40106000Y-118720000D03*
X40106000Y-116180000D03*
X40106000Y-113640000D03*
X40106000Y-111100000D03*
X40106000Y-108560000D03*
X40106000Y-106020000D03*
X43154000Y-123800000D03*
X43154000Y-121260000D03*
X43154000Y-118720000D03*
X43154000Y-116180000D03*
X43154000Y-113640000D03*
X43154000Y-111100000D03*
X43154000Y-108560000D03*
X43154000Y-106020000D03*
D16*
X101200000Y-55220000D03*
X101200000Y-57760000D03*
X101200000Y-60300000D03*
X101200000Y-62840000D03*
X101200000Y-65380000D03*
X101200000Y-67920000D03*
X101200000Y-70460000D03*
D17*
X101200000Y-73000000D03*
D18*
X116800000Y-118220000D03*
D19*
X116800000Y-115680000D03*
X116800000Y-113140000D03*
X116800000Y-110600000D03*
D18*
X26860000Y-69100000D03*
D20*
X29400000Y-69100000D03*
X31940000Y-69100000D03*
X34480000Y-69100000D03*
X37020000Y-69100000D03*
D18*
X43040000Y-56200000D03*
D20*
X40500000Y-56200000D03*
X37960000Y-56200000D03*
X35420000Y-56200000D03*
X32880000Y-56200000D03*
X30340000Y-56200000D03*
D21*
X100700000Y-106698220D03*
X100700000Y-104701780D03*
D22*
X51625654Y-72212643D03*
D23*
X51625654Y-73012643D03*
X51625654Y-73812643D03*
X51625654Y-74612643D03*
X51625654Y-75412643D03*
X51625654Y-76212643D03*
X51625654Y-77012643D03*
X51625654Y-77812643D03*
X51625654Y-78612643D03*
X51625654Y-79412643D03*
X51625654Y-80212643D03*
D24*
X53325654Y-81912643D03*
X54125654Y-81912643D03*
X54925654Y-81912643D03*
X55725654Y-81912643D03*
X56525654Y-81912643D03*
X57325654Y-81912643D03*
X58125654Y-81912643D03*
X58925654Y-81912643D03*
X59725654Y-81912643D03*
X60525654Y-81912643D03*
X61325654Y-81912643D03*
D23*
X63025654Y-80212643D03*
X63025654Y-79412643D03*
X63025654Y-78612643D03*
X63025654Y-77812643D03*
X63025654Y-77012643D03*
X63025654Y-76212643D03*
X63025654Y-75412643D03*
X63025654Y-74612643D03*
X63025654Y-73812643D03*
X63025654Y-73012643D03*
X63025654Y-72212643D03*
D24*
X61325654Y-70512643D03*
X60525654Y-70512643D03*
X59725654Y-70512643D03*
X58925654Y-70512643D03*
X58125654Y-70512643D03*
X57325654Y-70512643D03*
X56525654Y-70512643D03*
X55725654Y-70512643D03*
X54925654Y-70512643D03*
X54125654Y-70512643D03*
X53325654Y-70512643D03*
D25*
X30500000Y-103500000D03*
D26*
X77400000Y-89330000D03*
D27*
X77400000Y-91870000D03*
D28*
X103800000Y-55300840D03*
X103800000Y-57099160D03*
D29*
X93399160Y-56000000D03*
X91600840Y-56000000D03*
D30*
X110298220Y-48700000D03*
X108301780Y-48700000D03*
D21*
X49400000Y-54198220D03*
X49400000Y-52201780D03*
D30*
X116623220Y-76975000D03*
X114626780Y-76975000D03*
D31*
X117000000Y-51000000D03*
X26000000Y-133000000D03*
D18*
X76485981Y-68593021D03*
D32*
X79025981Y-68593021D03*
X81565981Y-68593021D03*
D18*
X76485980Y-74593021D03*
D32*
X79025980Y-74593021D03*
X81565980Y-74593021D03*
X95800000Y-55700000D03*
D21*
X108000000Y-81398220D03*
X108000000Y-79401780D03*
D30*
X89298220Y-52900000D03*
X87301780Y-52900000D03*
D26*
X117200000Y-71730000D03*
D27*
X117200000Y-74270000D03*
D29*
X50700840Y-68300000D03*
X52499160Y-68300000D03*
D26*
X109000000Y-71730000D03*
D27*
X109000000Y-74270000D03*
D28*
X60861188Y-85212977D03*
X60861188Y-87011297D03*
X90600000Y-89000840D03*
X90600000Y-90799160D03*
D29*
X84900840Y-56300000D03*
X86699160Y-56300000D03*
D33*
X113200000Y-107510000D03*
D34*
X113200000Y-101160000D03*
D35*
X86301000Y-58315000D03*
D36*
X86301000Y-59585000D03*
X86301000Y-60855000D03*
X86301000Y-62125000D03*
X86301000Y-63395000D03*
X86301000Y-64665000D03*
X86301000Y-65935000D03*
X86301000Y-67205000D03*
X86301000Y-68475000D03*
X86301000Y-69745000D03*
X86301000Y-71015000D03*
X86301000Y-72285000D03*
X95699000Y-72285000D03*
X95699000Y-71015000D03*
X95699000Y-69745000D03*
X95699000Y-68475000D03*
X95699000Y-67205000D03*
X95699000Y-65935000D03*
X95699000Y-64665000D03*
X95699000Y-63395000D03*
X95699000Y-62125000D03*
X95699000Y-60855000D03*
X95699000Y-59585000D03*
X95699000Y-58315000D03*
D18*
X66390000Y-131000000D03*
D32*
X63850000Y-131000000D03*
X61310000Y-131000000D03*
X58770000Y-131000000D03*
X56230000Y-131000000D03*
X53690000Y-131000000D03*
X51150000Y-131000000D03*
X48610000Y-131000000D03*
X114100000Y-96600000D03*
D37*
X116550000Y-79100000D03*
X114650000Y-79100000D03*
D38*
X115600000Y-81300000D03*
D39*
X91100000Y-50800000D03*
X91100000Y-52700000D03*
D40*
X93300000Y-51750000D03*
D39*
X103200000Y-102200000D03*
X103200000Y-104100000D03*
D40*
X105400000Y-103150000D03*
D21*
X114300000Y-111101780D03*
X114300000Y-113098220D03*
X114300000Y-115001780D03*
X114300000Y-116998220D03*
D30*
X78698220Y-52300000D03*
X76701780Y-52300000D03*
X61198220Y-90800000D03*
X59201780Y-90800000D03*
D21*
X56600000Y-85601780D03*
X56600000Y-87598220D03*
D30*
X104096440Y-111300000D03*
X102100000Y-111300000D03*
X89298220Y-50800000D03*
X87301780Y-50800000D03*
D21*
X102800000Y-108698220D03*
X102800000Y-106701780D03*
X77000000Y-82401780D03*
X77000000Y-84398220D03*
X53500000Y-56298220D03*
X53500000Y-54301780D03*
D30*
X36901780Y-52600000D03*
X38898220Y-52600000D03*
D18*
X76485981Y-71593020D03*
D32*
X79025981Y-71593020D03*
X81565981Y-71593020D03*
D18*
X76485981Y-77593021D03*
D32*
X79025981Y-77593021D03*
X81565981Y-77593021D03*
D29*
X64204668Y-70414366D03*
X66002988Y-70414366D03*
D28*
X74100000Y-89300840D03*
X74100000Y-91099160D03*
D26*
X105330000Y-94600000D03*
D27*
X107870000Y-94600000D03*
D26*
X107800000Y-103200000D03*
D27*
X107800000Y-105740000D03*
D41*
X96600000Y-52499920D03*
X96600000Y-48700080D03*
D42*
X74714845Y-55901165D03*
D43*
X74714845Y-57171165D03*
X74714845Y-58441165D03*
X74714845Y-59711165D03*
X81572845Y-59711165D03*
X81572845Y-58441165D03*
X81572845Y-57171165D03*
X81572845Y-55901165D03*
D33*
X92600000Y-96540000D03*
X92600000Y-94000000D03*
D44*
X92600000Y-85500000D03*
X92600000Y-82960000D03*
X74100000Y-83000000D03*
X74100000Y-85540000D03*
D33*
X74100000Y-94040000D03*
X74100000Y-96540000D03*
D31*
X117000000Y-133000000D03*
X26000000Y-51000000D03*
D32*
X24000000Y-111900000D03*
D18*
X80280000Y-50000000D03*
D32*
X77740000Y-50000000D03*
D45*
X75200000Y-50000000D03*
X72660000Y-50000000D03*
D32*
X70120000Y-50000000D03*
D18*
X25500000Y-56460000D03*
D32*
X25500000Y-59000000D03*
D18*
X110270000Y-51000000D03*
D32*
X107730000Y-51000000D03*
D18*
X116800000Y-92080000D03*
D32*
X116800000Y-89540000D03*
X116800000Y-87000000D03*
X116800000Y-84460000D03*
D18*
X103520000Y-51000000D03*
D32*
X100980000Y-51000000D03*
X111300000Y-135800000D03*
D46*
X67752356Y-76257007D03*
D47*
X67752356Y-74657007D03*
X67752356Y-75457007D03*
D46*
X67752356Y-73857007D03*
D47*
X65952356Y-75457007D03*
D46*
X65952356Y-76257007D03*
D47*
X65952356Y-74657007D03*
D46*
X65952356Y-73857007D03*
D18*
X106601183Y-113756224D03*
D32*
X104061183Y-113756224D03*
D18*
X42940000Y-50200000D03*
D32*
X40400000Y-50200000D03*
X37860000Y-50200000D03*
X35320000Y-50200000D03*
D18*
X116800000Y-121860000D03*
D32*
X116800000Y-124400000D03*
X116800000Y-126940000D03*
D18*
X54440000Y-50100000D03*
D32*
X51900000Y-50100000D03*
X49360000Y-50100000D03*
X46820000Y-50100000D03*
D18*
X116800000Y-100600000D03*
D32*
X116800000Y-103140000D03*
X116800000Y-105680000D03*
D48*
X62577987Y-68080914D03*
X60982867Y-68080914D03*
D49*
X59022710Y-85031734D03*
X59022710Y-86626854D03*
X54700000Y-86102440D03*
X54700000Y-87697560D03*
D48*
X81512405Y-54101165D03*
X79917285Y-54101165D03*
X53497560Y-52400000D03*
X51902440Y-52400000D03*
D29*
X83300840Y-89900000D03*
X85099160Y-89900000D03*
D28*
X87100000Y-91699160D03*
X87100000Y-89900840D03*
X30200000Y-79699160D03*
X30200000Y-77900840D03*
D50*
X84600000Y-92800000D03*
X82300000Y-92800000D03*
X80000000Y-92800000D03*
D51*
X82300000Y-99000000D03*
D52*
X81050000Y-86550000D03*
D53*
X82200000Y-86550000D03*
D52*
X83350000Y-86550000D03*
D54*
X81050000Y-85500000D03*
D55*
X82200000Y-85500000D03*
D54*
X83350000Y-85500000D03*
D52*
X83350000Y-84450000D03*
X81050000Y-84450000D03*
D53*
X82200000Y-84450000D03*
D18*
X63670000Y-51000000D03*
D32*
X61130000Y-51000000D03*
D18*
X29160000Y-91300000D03*
D32*
X31700000Y-91300000D03*
X34240000Y-91300000D03*
D21*
X46800000Y-54198220D03*
X46800000Y-52201780D03*
D30*
X27701780Y-64700000D03*
X29698220Y-64700000D03*
D21*
X66800000Y-50998220D03*
X66800000Y-49001780D03*
D30*
X79701780Y-89900000D03*
X81698220Y-89900000D03*
X30398220Y-75100000D03*
X28401780Y-75100000D03*
X24803560Y-75100000D03*
X26800000Y-75100000D03*
X36801780Y-85000000D03*
X38798220Y-85000000D03*
D21*
X31500000Y-83898220D03*
X31500000Y-81901780D03*
D56*
X80200000Y-82600000D03*
X80800000Y-82600000D03*
X81400000Y-82600000D03*
D57*
X40845000Y-59402520D03*
D58*
X39575000Y-59402520D03*
X38305000Y-59402520D03*
X37035000Y-59402520D03*
X35765000Y-59402520D03*
X34495000Y-59402520D03*
X33225000Y-59402520D03*
X31955000Y-59402520D03*
X31955000Y-64797480D03*
X33225000Y-64797480D03*
X34495000Y-64797480D03*
X35765000Y-64797480D03*
X37035000Y-64797480D03*
X38305000Y-64797480D03*
X39575000Y-64797480D03*
X40845000Y-64797480D03*
D44*
X109131183Y-113756224D03*
D33*
X101531183Y-113756224D03*
D59*
X111150000Y-79310000D03*
D60*
X111150000Y-81850000D03*
D59*
X111150000Y-84390000D03*
X111150000Y-86930000D03*
X111150000Y-92010000D03*
X111150000Y-94550000D03*
X111150000Y-89470000D03*
D60*
X111150000Y-97090000D03*
D59*
X98050000Y-92010000D03*
X98050000Y-79310000D03*
X98050000Y-81850000D03*
X98050000Y-86930000D03*
X98050000Y-97090000D03*
X98050000Y-84390000D03*
X98050000Y-89470000D03*
X98050000Y-94550000D03*
D61*
X100790000Y-97390000D03*
X102060000Y-95520000D03*
X103330000Y-97390000D03*
D49*
X114400000Y-121797560D03*
X114400000Y-120202440D03*
D62*
X108248360Y-118000000D03*
X106551640Y-118000000D03*
D63*
X118500000Y-81400000D03*
X77200000Y-62500000D03*
X70500000Y-62500000D03*
X73100000Y-62500000D03*
X81600000Y-65950000D03*
X66000000Y-62500000D03*
X69900000Y-86900000D03*
X66900000Y-86900000D03*
X23400000Y-63800000D03*
X38800000Y-91300000D03*
D32*
X24003000Y-91313000D03*
D64*
X108200000Y-63750000D03*
X108200000Y-61850000D03*
X106200000Y-62800000D03*
D21*
X106400000Y-67598220D03*
X106400000Y-65601780D03*
D65*
X111300000Y-64698800D03*
X111300000Y-58501200D03*
D32*
X119200000Y-124400000D03*
D49*
X42950000Y-133602440D03*
X42950000Y-135197560D03*
D28*
X45100000Y-133551680D03*
X45100000Y-135350000D03*
D48*
X34102440Y-120150000D03*
X35697560Y-120150000D03*
D49*
X28150000Y-128645120D03*
X28150000Y-127050000D03*
D32*
X57940000Y-112400000D03*
X55400000Y-112400000D03*
X52860000Y-112400000D03*
D18*
X42980000Y-131100000D03*
D32*
X40440000Y-131100000D03*
X37900000Y-131100000D03*
X35360000Y-131100000D03*
X32820000Y-131100000D03*
D21*
X58000000Y-117198220D03*
X58000000Y-115201780D03*
X55400000Y-117198220D03*
X55400000Y-115201780D03*
X52800000Y-117198220D03*
X52800000Y-115201780D03*
X45100000Y-126201780D03*
X45100000Y-128198220D03*
X42900000Y-126200000D03*
X42900000Y-128196440D03*
D66*
X73660000Y-129540000D03*
X76200000Y-129540000D03*
X78740000Y-129540000D03*
X81280000Y-129540000D03*
X83820000Y-129540000D03*
X86360000Y-129540000D03*
X88900000Y-129540000D03*
X91440000Y-129540000D03*
X93980000Y-129540000D03*
X96520000Y-129540000D03*
X99060000Y-129540000D03*
D32*
X81000000Y-61900000D03*
D67*
X118500000Y-78900000D03*
D68*
X71120000Y-127000000D03*
X73660000Y-127000000D03*
X76200000Y-127000000D03*
X78740000Y-127000000D03*
X81280000Y-127000000D03*
X83820000Y-127000000D03*
X86360000Y-127000000D03*
X88900000Y-127000000D03*
X91440000Y-127000000D03*
X93980000Y-127000000D03*
X96520000Y-127000000D03*
X99060000Y-127000000D03*
X101600000Y-127000000D03*
D66*
X68580000Y-114300000D03*
X71120000Y-114300000D03*
X73660000Y-114300000D03*
X76200000Y-114300000D03*
X78740000Y-114300000D03*
X81280000Y-114300000D03*
X83820000Y-114300000D03*
X86360000Y-114300000D03*
X88900000Y-114300000D03*
X91440000Y-114300000D03*
X93980000Y-114300000D03*
D68*
X66040000Y-116840000D03*
X68580000Y-116840000D03*
X71120000Y-116840000D03*
X73660000Y-116840000D03*
X76200000Y-116840000D03*
X78740000Y-116840000D03*
X81280000Y-116840000D03*
X83820000Y-116840000D03*
X86360000Y-116840000D03*
X88900000Y-116840000D03*
X91440000Y-116840000D03*
X93980000Y-116840000D03*
X96520000Y-116840000D03*
X68580000Y-121920000D03*
X71120000Y-121920000D03*
X73660000Y-121920000D03*
X76200000Y-121920000D03*
X78740000Y-121920000D03*
X81280000Y-121920000D03*
X83820000Y-121920000D03*
X86360000Y-121920000D03*
X88900000Y-121920000D03*
X91440000Y-121920000D03*
X93980000Y-121920000D03*
X96520000Y-121920000D03*
X99060000Y-121920000D03*
D49*
X42700000Y-64697560D03*
X42700000Y-63102440D03*
D66*
X52070000Y-102870000D03*
X54610000Y-102870000D03*
X57150000Y-102870000D03*
X59690000Y-102870000D03*
X62230000Y-102870000D03*
X52070000Y-105410000D03*
X54610000Y-105410000D03*
X57150000Y-105410000D03*
X59690000Y-105410000D03*
X62230000Y-105410000D03*
X73660000Y-132080000D03*
X76200000Y-132080000D03*
X78740000Y-132080000D03*
X81280000Y-132080000D03*
X83820000Y-132080000D03*
X86360000Y-132080000D03*
X88900000Y-132080000D03*
X91440000Y-132080000D03*
X93980000Y-132080000D03*
X96520000Y-132080000D03*
X99060000Y-132080000D03*
D68*
X66040000Y-119380000D03*
X68580000Y-119380000D03*
X71120000Y-119380000D03*
X73660000Y-119380000D03*
X76200000Y-119380000D03*
X78740000Y-119380000D03*
X81280000Y-119380000D03*
X83820000Y-119380000D03*
X86360000Y-119380000D03*
X88900000Y-119380000D03*
X91440000Y-119380000D03*
X93980000Y-119380000D03*
X96520000Y-119380000D03*
X71120000Y-124460000D03*
X73660000Y-124460000D03*
X76200000Y-124460000D03*
X78740000Y-124460000D03*
X81280000Y-124460000D03*
X83820000Y-124460000D03*
X86360000Y-124460000D03*
X88900000Y-124460000D03*
X91440000Y-124460000D03*
X93980000Y-124460000D03*
X96520000Y-124460000D03*
X99060000Y-124460000D03*
X101600000Y-124460000D03*
D66*
X68580000Y-111760000D03*
X71120000Y-111760000D03*
X73660000Y-111760000D03*
X76200000Y-111760000D03*
X78740000Y-111760000D03*
X81280000Y-111760000D03*
X83820000Y-111760000D03*
X86360000Y-111760000D03*
X88900000Y-111760000D03*
X91440000Y-111760000D03*
X93980000Y-111760000D03*
D69*
X65006220Y-108204000D03*
X69105780Y-108204000D03*
D28*
X101400000Y-129600000D03*
X101400000Y-131398320D03*
X66300000Y-114300000D03*
X66300000Y-112501680D03*
D63*
X99900000Y-102600000D03*
D70*
X63800000Y-81400000D03*
X63200000Y-81400000D03*
X63500000Y-82600000D03*
X62900000Y-82600000D03*
X65200000Y-80200000D03*
X64600000Y-80200000D03*
D71*
X115700000Y-58500000D03*
D72*
X115700000Y-63580000D03*
D73*
X47950000Y-56400000D03*
X51250000Y-56400000D03*
X51250000Y-58800000D03*
X47950000Y-58800000D03*
X24850000Y-80000000D03*
X28150000Y-80000000D03*
X28150000Y-77500000D03*
X24850000Y-77500000D03*
X24850000Y-82550000D03*
X28150000Y-82550000D03*
D21*
X33600000Y-81901780D03*
X33600000Y-83898220D03*
M02*
