G04 #@! TF.FileFunction,Legend,Top*
%FSLAX46Y46*%
G04 Gerber Fmt 4.6, Leading zero omitted, Abs format (unit mm)*
G04 Created by KiCad (PCBNEW 4.0.7) date 05/25/18 22:12:56*
%MOMM*%
%LPD*%
G01*
G04 APERTURE LIST*
%ADD10C,0.100000*%
%ADD11C,0.150000*%
%ADD12C,0.250000*%
%ADD13C,0.200000*%
%ADD14C,0.177800*%
%ADD15C,0.254000*%
%ADD16C,0.400000*%
%ADD17C,0.120000*%
%ADD18C,0.450000*%
G04 APERTURE END LIST*
D10*
D11*
X22000000Y-135000000D02*
G75*
G03X25000000Y-138000000I3000000J0D01*
G01*
X118000000Y-138000000D02*
G75*
G03X121000000Y-135000000I0J3000000D01*
G01*
X121000000Y-50000000D02*
G75*
G03X118000000Y-47000000I-3000000J0D01*
G01*
X25000000Y-47000000D02*
G75*
G03X22000000Y-50000000I0J-3000000D01*
G01*
D12*
X62042857Y-84354762D02*
X62185714Y-84402381D01*
X62423810Y-84402381D01*
X62519048Y-84354762D01*
X62566667Y-84307143D01*
X62614286Y-84211905D01*
X62614286Y-84116667D01*
X62566667Y-84021429D01*
X62519048Y-83973810D01*
X62423810Y-83926190D01*
X62233333Y-83878571D01*
X62138095Y-83830952D01*
X62090476Y-83783333D01*
X62042857Y-83688095D01*
X62042857Y-83592857D01*
X62090476Y-83497619D01*
X62138095Y-83450000D01*
X62233333Y-83402381D01*
X62471429Y-83402381D01*
X62614286Y-83450000D01*
X63423810Y-84354762D02*
X63328572Y-84402381D01*
X63138095Y-84402381D01*
X63042857Y-84354762D01*
X62995238Y-84259524D01*
X62995238Y-83878571D01*
X63042857Y-83783333D01*
X63138095Y-83735714D01*
X63328572Y-83735714D01*
X63423810Y-83783333D01*
X63471429Y-83878571D01*
X63471429Y-83973810D01*
X62995238Y-84069048D01*
X63900000Y-84402381D02*
X63900000Y-83735714D01*
X63900000Y-83926190D02*
X63947619Y-83830952D01*
X63995238Y-83783333D01*
X64090476Y-83735714D01*
X64185715Y-83735714D01*
X64423810Y-83735714D02*
X64661905Y-84402381D01*
X64900001Y-83735714D01*
X65423810Y-84402381D02*
X65328572Y-84354762D01*
X65280953Y-84307143D01*
X65233334Y-84211905D01*
X65233334Y-83926190D01*
X65280953Y-83830952D01*
X65328572Y-83783333D01*
X65423810Y-83735714D01*
X65566668Y-83735714D01*
X65661906Y-83783333D01*
X65709525Y-83830952D01*
X65757144Y-83926190D01*
X65757144Y-84211905D01*
X65709525Y-84307143D01*
X65661906Y-84354762D01*
X65566668Y-84402381D01*
X65423810Y-84402381D01*
X66040476Y-79702381D02*
X66040476Y-78702381D01*
X66278571Y-78702381D01*
X66421429Y-78750000D01*
X66516667Y-78845238D01*
X66564286Y-78940476D01*
X66611905Y-79130952D01*
X66611905Y-79273810D01*
X66564286Y-79464286D01*
X66516667Y-79559524D01*
X66421429Y-79654762D01*
X66278571Y-79702381D01*
X66040476Y-79702381D01*
X67040476Y-79702381D02*
X67040476Y-79035714D01*
X67040476Y-78702381D02*
X66992857Y-78750000D01*
X67040476Y-78797619D01*
X67088095Y-78750000D01*
X67040476Y-78702381D01*
X67040476Y-78797619D01*
X67516666Y-79702381D02*
X67516666Y-79035714D01*
X67516666Y-79226190D02*
X67564285Y-79130952D01*
X67611904Y-79083333D01*
X67707142Y-79035714D01*
X67802381Y-79035714D01*
X64947619Y-81954762D02*
X65090476Y-82002381D01*
X65328572Y-82002381D01*
X65423810Y-81954762D01*
X65471429Y-81907143D01*
X65519048Y-81811905D01*
X65519048Y-81716667D01*
X65471429Y-81621429D01*
X65423810Y-81573810D01*
X65328572Y-81526190D01*
X65138095Y-81478571D01*
X65042857Y-81430952D01*
X64995238Y-81383333D01*
X64947619Y-81288095D01*
X64947619Y-81192857D01*
X64995238Y-81097619D01*
X65042857Y-81050000D01*
X65138095Y-81002381D01*
X65376191Y-81002381D01*
X65519048Y-81050000D01*
X65804762Y-81335714D02*
X66185714Y-81335714D01*
X65947619Y-81002381D02*
X65947619Y-81859524D01*
X65995238Y-81954762D01*
X66090476Y-82002381D01*
X66185714Y-82002381D01*
X66900001Y-81954762D02*
X66804763Y-82002381D01*
X66614286Y-82002381D01*
X66519048Y-81954762D01*
X66471429Y-81859524D01*
X66471429Y-81478571D01*
X66519048Y-81383333D01*
X66614286Y-81335714D01*
X66804763Y-81335714D01*
X66900001Y-81383333D01*
X66947620Y-81478571D01*
X66947620Y-81573810D01*
X66471429Y-81669048D01*
X67376191Y-81335714D02*
X67376191Y-82335714D01*
X67376191Y-81383333D02*
X67471429Y-81335714D01*
X67661906Y-81335714D01*
X67757144Y-81383333D01*
X67804763Y-81430952D01*
X67852382Y-81526190D01*
X67852382Y-81811905D01*
X67804763Y-81907143D01*
X67757144Y-81954762D01*
X67661906Y-82002381D01*
X67471429Y-82002381D01*
X67376191Y-81954762D01*
X89290476Y-99652381D02*
X89290476Y-98652381D01*
X89671429Y-98652381D01*
X89766667Y-98700000D01*
X89814286Y-98747619D01*
X89861905Y-98842857D01*
X89861905Y-98985714D01*
X89814286Y-99080952D01*
X89766667Y-99128571D01*
X89671429Y-99176190D01*
X89290476Y-99176190D01*
X90480952Y-98652381D02*
X90671429Y-98652381D01*
X90766667Y-98700000D01*
X90861905Y-98795238D01*
X90909524Y-98985714D01*
X90909524Y-99319048D01*
X90861905Y-99509524D01*
X90766667Y-99604762D01*
X90671429Y-99652381D01*
X90480952Y-99652381D01*
X90385714Y-99604762D01*
X90290476Y-99509524D01*
X90242857Y-99319048D01*
X90242857Y-98985714D01*
X90290476Y-98795238D01*
X90385714Y-98700000D01*
X90480952Y-98652381D01*
X91242857Y-98652381D02*
X91480952Y-99652381D01*
X91671429Y-98938095D01*
X91861905Y-99652381D01*
X92100000Y-98652381D01*
X92480952Y-99128571D02*
X92814286Y-99128571D01*
X92957143Y-99652381D02*
X92480952Y-99652381D01*
X92480952Y-98652381D01*
X92957143Y-98652381D01*
X93957143Y-99652381D02*
X93623809Y-99176190D01*
X93385714Y-99652381D02*
X93385714Y-98652381D01*
X93766667Y-98652381D01*
X93861905Y-98700000D01*
X93909524Y-98747619D01*
X93957143Y-98842857D01*
X93957143Y-98985714D01*
X93909524Y-99080952D01*
X93861905Y-99128571D01*
X93766667Y-99176190D01*
X93385714Y-99176190D01*
D13*
X59600000Y-87800000D02*
X59300000Y-87400000D01*
X99100000Y-53300000D02*
X97000000Y-54900000D01*
D12*
X99252381Y-52752381D02*
X99871429Y-52752381D01*
X99538095Y-53133333D01*
X99680953Y-53133333D01*
X99776191Y-53180952D01*
X99823810Y-53228571D01*
X99871429Y-53323810D01*
X99871429Y-53561905D01*
X99823810Y-53657143D01*
X99776191Y-53704762D01*
X99680953Y-53752381D01*
X99395238Y-53752381D01*
X99300000Y-53704762D01*
X99252381Y-53657143D01*
X100157143Y-52752381D02*
X100490476Y-53752381D01*
X100823810Y-52752381D01*
X102395239Y-53752381D02*
X101919048Y-53752381D01*
X101919048Y-52752381D01*
X103300001Y-53657143D02*
X103252382Y-53704762D01*
X103109525Y-53752381D01*
X103014287Y-53752381D01*
X102871429Y-53704762D01*
X102776191Y-53609524D01*
X102728572Y-53514286D01*
X102680953Y-53323810D01*
X102680953Y-53180952D01*
X102728572Y-52990476D01*
X102776191Y-52895238D01*
X102871429Y-52800000D01*
X103014287Y-52752381D01*
X103109525Y-52752381D01*
X103252382Y-52800000D01*
X103300001Y-52847619D01*
X103728572Y-53752381D02*
X103728572Y-52752381D01*
X103966667Y-52752381D01*
X104109525Y-52800000D01*
X104204763Y-52895238D01*
X104252382Y-52990476D01*
X104300001Y-53180952D01*
X104300001Y-53323810D01*
X104252382Y-53514286D01*
X104204763Y-53609524D01*
X104109525Y-53704762D01*
X103966667Y-53752381D01*
X103728572Y-53752381D01*
D11*
X118000000Y-138000000D02*
X25000000Y-138000000D01*
X121000000Y-50000000D02*
X121000000Y-135000000D01*
X25000000Y-47000000D02*
X118000000Y-47000000D01*
X22000000Y-135000000D02*
X22000000Y-50000000D01*
D14*
X101169900Y-105969240D02*
X101169900Y-105430760D01*
X101169900Y-105430760D02*
X101169900Y-105969240D01*
X100230100Y-105969240D02*
X100230100Y-105430760D01*
X100230100Y-105430760D02*
X100230100Y-105969240D01*
D13*
X52129792Y-70712643D02*
G75*
G03X52129792Y-70712643I-304138J0D01*
G01*
X52450654Y-71037643D02*
X52200654Y-71237643D01*
X52575654Y-71037643D02*
X52175654Y-71387643D01*
X52150654Y-71612643D02*
X52725654Y-71037643D01*
X52150654Y-71037643D02*
X52150654Y-71612643D01*
X62500654Y-71037643D02*
X62500654Y-71712643D01*
X62500654Y-81387643D02*
X62500654Y-80712643D01*
D11*
X52150654Y-81387643D02*
X52150654Y-80712643D01*
D13*
X52150654Y-71037643D02*
X52725654Y-71037643D01*
D11*
X52150654Y-81387643D02*
X52825654Y-81387643D01*
D13*
X62500654Y-81387643D02*
X61825654Y-81387643D01*
X62500654Y-71037643D02*
X61825654Y-71037643D01*
D14*
X103330100Y-56131420D02*
X103330100Y-56268580D01*
X103330100Y-56268580D02*
X103330100Y-56131420D01*
X104269900Y-56131420D02*
X104269900Y-56268580D01*
X104269900Y-56268580D02*
X104269900Y-56131420D01*
X92568580Y-55530100D02*
X92431420Y-55530100D01*
X92431420Y-55530100D02*
X92568580Y-55530100D01*
X92568580Y-56469900D02*
X92431420Y-56469900D01*
X92431420Y-56469900D02*
X92568580Y-56469900D01*
X109569240Y-48230100D02*
X109030760Y-48230100D01*
X109030760Y-48230100D02*
X109569240Y-48230100D01*
X109569240Y-49169900D02*
X109030760Y-49169900D01*
X109030760Y-49169900D02*
X109569240Y-49169900D01*
X49869900Y-53469240D02*
X49869900Y-52930760D01*
X49869900Y-52930760D02*
X49869900Y-53469240D01*
X48930100Y-53469240D02*
X48930100Y-52930760D01*
X48930100Y-52930760D02*
X48930100Y-53469240D01*
X115894240Y-76505100D02*
X115355760Y-76505100D01*
X115355760Y-76505100D02*
X115894240Y-76505100D01*
X115894240Y-77444900D02*
X115355760Y-77444900D01*
X115355760Y-77444900D02*
X115894240Y-77444900D01*
D13*
X97070000Y-55700000D02*
G75*
G03X97070000Y-55700000I-1270000J0D01*
G01*
D14*
X108469900Y-80669240D02*
X108469900Y-80130760D01*
X108469900Y-80130760D02*
X108469900Y-80669240D01*
X107530100Y-80669240D02*
X107530100Y-80130760D01*
X107530100Y-80130760D02*
X107530100Y-80669240D01*
X88569240Y-52430100D02*
X88030760Y-52430100D01*
X88030760Y-52430100D02*
X88569240Y-52430100D01*
X88569240Y-53369900D02*
X88030760Y-53369900D01*
X88030760Y-53369900D02*
X88569240Y-53369900D01*
X51531420Y-68769900D02*
X51668580Y-68769900D01*
X51668580Y-68769900D02*
X51531420Y-68769900D01*
X51531420Y-67830100D02*
X51668580Y-67830100D01*
X51668580Y-67830100D02*
X51531420Y-67830100D01*
X60391288Y-86043557D02*
X60391288Y-86180717D01*
X60391288Y-86180717D02*
X60391288Y-86043557D01*
X61331088Y-86043557D02*
X61331088Y-86180717D01*
X61331088Y-86180717D02*
X61331088Y-86043557D01*
X90130100Y-89831420D02*
X90130100Y-89968580D01*
X90130100Y-89968580D02*
X90130100Y-89831420D01*
X91069900Y-89831420D02*
X91069900Y-89968580D01*
X91069900Y-89968580D02*
X91069900Y-89831420D01*
X85731420Y-56769900D02*
X85868580Y-56769900D01*
X85868580Y-56769900D02*
X85731420Y-56769900D01*
X85731420Y-55830100D02*
X85868580Y-55830100D01*
X85868580Y-55830100D02*
X85731420Y-55830100D01*
X94190240Y-57502200D02*
X87809760Y-57502200D01*
X87809760Y-57502200D02*
X87809760Y-73097800D01*
X87809760Y-73097800D02*
X94190240Y-73097800D01*
X94190240Y-73097800D02*
X94190240Y-57502200D01*
D15*
X85427240Y-57461560D02*
X85554240Y-57334560D01*
X85554240Y-57334560D02*
X85681240Y-57461560D01*
X85681240Y-57461560D02*
X85554240Y-57588560D01*
X85554240Y-57588560D02*
X85427240Y-57461560D01*
D14*
X87936760Y-58010200D02*
X88317760Y-57629200D01*
X88317760Y-57629200D02*
X88698760Y-58010200D01*
X88698760Y-58010200D02*
X88317760Y-58391200D01*
X88317760Y-58391200D02*
X87936760Y-58010200D01*
D11*
X115000000Y-80900000D02*
X114100000Y-80900000D01*
X114100000Y-80900000D02*
X114100000Y-79900000D01*
X117100000Y-79900000D02*
X117100000Y-80900000D01*
X117100000Y-80900000D02*
X116200000Y-80900000D01*
X92900000Y-52350000D02*
X92900000Y-53250000D01*
X92900000Y-53250000D02*
X91900000Y-53250000D01*
X91900000Y-50250000D02*
X92900000Y-50250000D01*
X92900000Y-50250000D02*
X92900000Y-51150000D01*
X105000000Y-103750000D02*
X105000000Y-104650000D01*
X105000000Y-104650000D02*
X104000000Y-104650000D01*
X104000000Y-101650000D02*
X105000000Y-101650000D01*
X105000000Y-101650000D02*
X105000000Y-102550000D01*
D14*
X113830100Y-111830760D02*
X113830100Y-112369240D01*
X113830100Y-112369240D02*
X113830100Y-111830760D01*
X114769900Y-111830760D02*
X114769900Y-112369240D01*
X114769900Y-112369240D02*
X114769900Y-111830760D01*
X113830100Y-115730760D02*
X113830100Y-116269240D01*
X113830100Y-116269240D02*
X113830100Y-115730760D01*
X114769900Y-115730760D02*
X114769900Y-116269240D01*
X114769900Y-116269240D02*
X114769900Y-115730760D01*
X77969240Y-51830100D02*
X77430760Y-51830100D01*
X77430760Y-51830100D02*
X77969240Y-51830100D01*
X77969240Y-52769900D02*
X77430760Y-52769900D01*
X77430760Y-52769900D02*
X77969240Y-52769900D01*
X60469240Y-90330100D02*
X59930760Y-90330100D01*
X59930760Y-90330100D02*
X60469240Y-90330100D01*
X60469240Y-91269900D02*
X59930760Y-91269900D01*
X59930760Y-91269900D02*
X60469240Y-91269900D01*
X56130100Y-86330760D02*
X56130100Y-86869240D01*
X56130100Y-86869240D02*
X56130100Y-86330760D01*
X57069900Y-86330760D02*
X57069900Y-86869240D01*
X57069900Y-86869240D02*
X57069900Y-86330760D01*
X103367460Y-110830100D02*
X102828980Y-110830100D01*
X102828980Y-110830100D02*
X103367460Y-110830100D01*
X103367460Y-111769900D02*
X102828980Y-111769900D01*
X102828980Y-111769900D02*
X103367460Y-111769900D01*
X88569240Y-50330100D02*
X88030760Y-50330100D01*
X88030760Y-50330100D02*
X88569240Y-50330100D01*
X88569240Y-51269900D02*
X88030760Y-51269900D01*
X88030760Y-51269900D02*
X88569240Y-51269900D01*
X103269900Y-107969240D02*
X103269900Y-107430760D01*
X103269900Y-107430760D02*
X103269900Y-107969240D01*
X102330100Y-107969240D02*
X102330100Y-107430760D01*
X102330100Y-107430760D02*
X102330100Y-107969240D01*
X76530100Y-83130760D02*
X76530100Y-83669240D01*
X76530100Y-83669240D02*
X76530100Y-83130760D01*
X77469900Y-83130760D02*
X77469900Y-83669240D01*
X77469900Y-83669240D02*
X77469900Y-83130760D01*
X53969900Y-55569240D02*
X53969900Y-55030760D01*
X53969900Y-55030760D02*
X53969900Y-55569240D01*
X53030100Y-55569240D02*
X53030100Y-55030760D01*
X53030100Y-55030760D02*
X53030100Y-55569240D01*
X37630760Y-53069900D02*
X38169240Y-53069900D01*
X38169240Y-53069900D02*
X37630760Y-53069900D01*
X37630760Y-52130100D02*
X38169240Y-52130100D01*
X38169240Y-52130100D02*
X37630760Y-52130100D01*
X65035248Y-70884266D02*
X65172408Y-70884266D01*
X65172408Y-70884266D02*
X65035248Y-70884266D01*
X65035248Y-69944466D02*
X65172408Y-69944466D01*
X65172408Y-69944466D02*
X65035248Y-69944466D01*
X73630100Y-90131420D02*
X73630100Y-90268580D01*
X73630100Y-90268580D02*
X73630100Y-90131420D01*
X74569900Y-90131420D02*
X74569900Y-90268580D01*
X74569900Y-90268580D02*
X74569900Y-90131420D01*
D13*
X109750000Y-94600000D02*
G75*
G03X109750000Y-94600000I-3150000J0D01*
G01*
D11*
X96600000Y-51362000D02*
X96600000Y-51565200D01*
X94695000Y-52886000D02*
X94695000Y-48314000D01*
X94695000Y-48314000D02*
X95330000Y-48314000D01*
X98505000Y-49939600D02*
X94695000Y-49939600D01*
X98505000Y-49609400D02*
X94695000Y-49609400D01*
X97870000Y-52886000D02*
X98505000Y-52886000D01*
X98505000Y-52886000D02*
X98505000Y-48314000D01*
X98505000Y-48314000D02*
X97870000Y-48314000D01*
X95330000Y-52886000D02*
X94695000Y-52886000D01*
X96600000Y-50727000D02*
X96125020Y-51362000D01*
X96125020Y-51362000D02*
X96600000Y-51362000D01*
X96600000Y-51362000D02*
X97074980Y-51362000D01*
X97074980Y-51362000D02*
X96600000Y-50727000D01*
X96600000Y-50727000D02*
X96282500Y-50727000D01*
X96282500Y-50727000D02*
X96125020Y-50884480D01*
X96600000Y-50727000D02*
X96917500Y-50727000D01*
X96917500Y-50727000D02*
X97074980Y-50569520D01*
X96600000Y-50727000D02*
X96600000Y-49617020D01*
D16*
X75759491Y-54758165D02*
G75*
G03X75759491Y-54758165I-282646J0D01*
G01*
D13*
X79558625Y-55306805D02*
X76729065Y-55306805D01*
X76729065Y-55306805D02*
X76729065Y-60305525D01*
X76729065Y-60305525D02*
X79558625Y-60305525D01*
X79558625Y-60305525D02*
X79558625Y-55306805D01*
X94700000Y-81040000D02*
X72500000Y-81040000D01*
X94700000Y-98040000D02*
X94700000Y-81040000D01*
X72500000Y-98040000D02*
X72500000Y-81040000D01*
X94700000Y-98040000D02*
X72500000Y-98040000D01*
D17*
X66352356Y-73377007D02*
X67352356Y-73377007D01*
X66352356Y-76737007D02*
X67352356Y-76737007D01*
D14*
X61849007Y-67837074D02*
X61711847Y-67837074D01*
X61711847Y-67837074D02*
X61849007Y-67837074D01*
X61849007Y-68324754D02*
X61711847Y-68324754D01*
X61711847Y-68324754D02*
X61849007Y-68324754D01*
X58778870Y-85760714D02*
X58778870Y-85897874D01*
X58778870Y-85897874D02*
X58778870Y-85760714D01*
X59266550Y-85760714D02*
X59266550Y-85897874D01*
X59266550Y-85897874D02*
X59266550Y-85760714D01*
X54456160Y-86831420D02*
X54456160Y-86968580D01*
X54456160Y-86968580D02*
X54456160Y-86831420D01*
X54943840Y-86831420D02*
X54943840Y-86968580D01*
X54943840Y-86968580D02*
X54943840Y-86831420D01*
X80783425Y-53857325D02*
X80646265Y-53857325D01*
X80646265Y-53857325D02*
X80783425Y-53857325D01*
X80783425Y-54345005D02*
X80646265Y-54345005D01*
X80646265Y-54345005D02*
X80783425Y-54345005D01*
X52768580Y-52156160D02*
X52631420Y-52156160D01*
X52631420Y-52156160D02*
X52768580Y-52156160D01*
X52768580Y-52643840D02*
X52631420Y-52643840D01*
X52631420Y-52643840D02*
X52768580Y-52643840D01*
X84131420Y-90369900D02*
X84268580Y-90369900D01*
X84268580Y-90369900D02*
X84131420Y-90369900D01*
X84131420Y-89430100D02*
X84268580Y-89430100D01*
X84268580Y-89430100D02*
X84131420Y-89430100D01*
X87569900Y-90868580D02*
X87569900Y-90731420D01*
X87569900Y-90731420D02*
X87569900Y-90868580D01*
X86630100Y-90868580D02*
X86630100Y-90731420D01*
X86630100Y-90731420D02*
X86630100Y-90868580D01*
X30669900Y-78868580D02*
X30669900Y-78731420D01*
X30669900Y-78731420D02*
X30669900Y-78868580D01*
X29730100Y-78868580D02*
X29730100Y-78731420D01*
X29730100Y-78731420D02*
X29730100Y-78868580D01*
D11*
X85650000Y-94050000D02*
X85650000Y-97750000D01*
X85650000Y-97750000D02*
X78950000Y-97750000D01*
X78950000Y-97750000D02*
X78950000Y-94050000D01*
X78950000Y-94050000D02*
X85650000Y-94050000D01*
D18*
X81250000Y-87750000D02*
X80850000Y-87750000D01*
D13*
X80650000Y-87950000D02*
X80650000Y-87250000D01*
X81400000Y-87950000D02*
X80650000Y-87950000D01*
X81400000Y-87250000D02*
X81400000Y-87950000D01*
X84050000Y-87200000D02*
X84050000Y-83850000D01*
X80350000Y-87200000D02*
X84050000Y-87200000D01*
X80350000Y-83850000D02*
X80350000Y-87200000D01*
X84050000Y-83850000D02*
X80350000Y-83850000D01*
D18*
X81250000Y-87450000D02*
X80850000Y-87450000D01*
D14*
X47269900Y-53469240D02*
X47269900Y-52930760D01*
X47269900Y-52930760D02*
X47269900Y-53469240D01*
X46330100Y-53469240D02*
X46330100Y-52930760D01*
X46330100Y-52930760D02*
X46330100Y-53469240D01*
X28430760Y-65169900D02*
X28969240Y-65169900D01*
X28969240Y-65169900D02*
X28430760Y-65169900D01*
X28430760Y-64230100D02*
X28969240Y-64230100D01*
X28969240Y-64230100D02*
X28430760Y-64230100D01*
X67269900Y-50269240D02*
X67269900Y-49730760D01*
X67269900Y-49730760D02*
X67269900Y-50269240D01*
X66330100Y-50269240D02*
X66330100Y-49730760D01*
X66330100Y-49730760D02*
X66330100Y-50269240D01*
X80430760Y-90369900D02*
X80969240Y-90369900D01*
X80969240Y-90369900D02*
X80430760Y-90369900D01*
X80430760Y-89430100D02*
X80969240Y-89430100D01*
X80969240Y-89430100D02*
X80430760Y-89430100D01*
X29669240Y-74630100D02*
X29130760Y-74630100D01*
X29130760Y-74630100D02*
X29669240Y-74630100D01*
X29669240Y-75569900D02*
X29130760Y-75569900D01*
X29130760Y-75569900D02*
X29669240Y-75569900D01*
X25532540Y-75569900D02*
X26071020Y-75569900D01*
X26071020Y-75569900D02*
X25532540Y-75569900D01*
X25532540Y-74630100D02*
X26071020Y-74630100D01*
X26071020Y-74630100D02*
X25532540Y-74630100D01*
X37530760Y-85469900D02*
X38069240Y-85469900D01*
X38069240Y-85469900D02*
X37530760Y-85469900D01*
X37530760Y-84530100D02*
X38069240Y-84530100D01*
X38069240Y-84530100D02*
X37530760Y-84530100D01*
X31969900Y-83169240D02*
X31969900Y-82630760D01*
X31969900Y-82630760D02*
X31969900Y-83169240D01*
X31030100Y-83169240D02*
X31030100Y-82630760D01*
X31030100Y-82630760D02*
X31030100Y-83169240D01*
D13*
X81900000Y-83300000D02*
X81900000Y-81900000D01*
X79700000Y-81900000D02*
X79700000Y-83300000D01*
X79700000Y-81900000D02*
X81900000Y-81900000D01*
X81900000Y-83300000D02*
X79700000Y-83300000D01*
D16*
X42123607Y-59400000D02*
G75*
G03X42123607Y-59400000I-223607J0D01*
G01*
D14*
X41398720Y-63514780D02*
X41398720Y-60685220D01*
X41398720Y-60685220D02*
X31401280Y-60685220D01*
X31401280Y-60685220D02*
X31401280Y-63514780D01*
X31401280Y-63514780D02*
X41398720Y-63514780D01*
X114643840Y-121068580D02*
X114643840Y-120931420D01*
X114643840Y-120931420D02*
X114643840Y-121068580D01*
X114156160Y-121068580D02*
X114156160Y-120931420D01*
X114156160Y-120931420D02*
X114156160Y-121068580D01*
D17*
X106440000Y-61220000D02*
X106440000Y-62150000D01*
X106440000Y-64380000D02*
X106440000Y-63450000D01*
X106440000Y-64380000D02*
X108600000Y-64380000D01*
X106440000Y-61220000D02*
X107900000Y-61220000D01*
D14*
X106869900Y-66869240D02*
X106869900Y-66330760D01*
X106869900Y-66330760D02*
X106869900Y-66869240D01*
X105930100Y-66869240D02*
X105930100Y-66330760D01*
X105930100Y-66330760D02*
X105930100Y-66869240D01*
X112719860Y-63870760D02*
X112719860Y-59329240D01*
X112719860Y-59329240D02*
X112719860Y-63870760D01*
X109880140Y-63870760D02*
X109880140Y-59329240D01*
X109880140Y-59329240D02*
X109880140Y-63870760D01*
X42706160Y-134331420D02*
X42706160Y-134468580D01*
X42706160Y-134468580D02*
X42706160Y-134331420D01*
X43193840Y-134331420D02*
X43193840Y-134468580D01*
X43193840Y-134468580D02*
X43193840Y-134331420D01*
X44630100Y-134382260D02*
X44630100Y-134519420D01*
X44630100Y-134519420D02*
X44630100Y-134382260D01*
X45569900Y-134382260D02*
X45569900Y-134519420D01*
X45569900Y-134519420D02*
X45569900Y-134382260D01*
X34831420Y-120393840D02*
X34968580Y-120393840D01*
X34968580Y-120393840D02*
X34831420Y-120393840D01*
X34831420Y-119906160D02*
X34968580Y-119906160D01*
X34968580Y-119906160D02*
X34831420Y-119906160D01*
X28393840Y-127916140D02*
X28393840Y-127778980D01*
X28393840Y-127778980D02*
X28393840Y-127916140D01*
X27906160Y-127916140D02*
X27906160Y-127778980D01*
X27906160Y-127778980D02*
X27906160Y-127916140D01*
X58469900Y-116469240D02*
X58469900Y-115930760D01*
X58469900Y-115930760D02*
X58469900Y-116469240D01*
X57530100Y-116469240D02*
X57530100Y-115930760D01*
X57530100Y-115930760D02*
X57530100Y-116469240D01*
X55869900Y-116469240D02*
X55869900Y-115930760D01*
X55869900Y-115930760D02*
X55869900Y-116469240D01*
X54930100Y-116469240D02*
X54930100Y-115930760D01*
X54930100Y-115930760D02*
X54930100Y-116469240D01*
X53269900Y-116469240D02*
X53269900Y-115930760D01*
X53269900Y-115930760D02*
X53269900Y-116469240D01*
X52330100Y-116469240D02*
X52330100Y-115930760D01*
X52330100Y-115930760D02*
X52330100Y-116469240D01*
X44630100Y-126930760D02*
X44630100Y-127469240D01*
X44630100Y-127469240D02*
X44630100Y-126930760D01*
X45569900Y-126930760D02*
X45569900Y-127469240D01*
X45569900Y-127469240D02*
X45569900Y-126930760D01*
X42430100Y-126928980D02*
X42430100Y-127467460D01*
X42430100Y-127467460D02*
X42430100Y-126928980D01*
X43369900Y-126928980D02*
X43369900Y-127467460D01*
X43369900Y-127467460D02*
X43369900Y-126928980D01*
X42943840Y-63968580D02*
X42943840Y-63831420D01*
X42943840Y-63831420D02*
X42943840Y-63968580D01*
X42456160Y-63968580D02*
X42456160Y-63831420D01*
X42456160Y-63831420D02*
X42456160Y-63968580D01*
X65961260Y-109697520D02*
X68150740Y-109697520D01*
X68150740Y-109697520D02*
X65961260Y-109697520D01*
X65961260Y-106710480D02*
X68150740Y-106710480D01*
X68150740Y-106710480D02*
X65961260Y-106710480D01*
X100930100Y-130430580D02*
X100930100Y-130567740D01*
X100930100Y-130567740D02*
X100930100Y-130430580D01*
X101869900Y-130430580D02*
X101869900Y-130567740D01*
X101869900Y-130567740D02*
X101869900Y-130430580D01*
X66769900Y-113469420D02*
X66769900Y-113332260D01*
X66769900Y-113332260D02*
X66769900Y-113469420D01*
X65830100Y-113469420D02*
X65830100Y-113332260D01*
X65830100Y-113332260D02*
X65830100Y-113469420D01*
D13*
X49900000Y-56400000D02*
X50350000Y-56400000D01*
X49850000Y-56800000D02*
X49300000Y-56400000D01*
X49850000Y-56000000D02*
X49850000Y-56800000D01*
X49250000Y-56400000D02*
X49850000Y-56000000D01*
X48850000Y-56400000D02*
X49250000Y-56400000D01*
X49250000Y-55850000D02*
X49250000Y-56950000D01*
D11*
X47350000Y-55400000D02*
X47350000Y-57400000D01*
X47350000Y-57400000D02*
X51250000Y-57400000D01*
X47350000Y-55400000D02*
X51250000Y-55400000D01*
D13*
X49300000Y-58800000D02*
X48850000Y-58800000D01*
X49350000Y-58400000D02*
X49900000Y-58800000D01*
X49350000Y-59200000D02*
X49350000Y-58400000D01*
X49950000Y-58800000D02*
X49350000Y-59200000D01*
X50350000Y-58800000D02*
X49950000Y-58800000D01*
X49950000Y-59350000D02*
X49950000Y-58250000D01*
D11*
X51850000Y-59800000D02*
X51850000Y-57800000D01*
X51850000Y-57800000D02*
X47950000Y-57800000D01*
X51850000Y-59800000D02*
X47950000Y-59800000D01*
D13*
X26800000Y-80000000D02*
X27250000Y-80000000D01*
X26750000Y-80400000D02*
X26200000Y-80000000D01*
X26750000Y-79600000D02*
X26750000Y-80400000D01*
X26150000Y-80000000D02*
X26750000Y-79600000D01*
X25750000Y-80000000D02*
X26150000Y-80000000D01*
X26150000Y-79450000D02*
X26150000Y-80550000D01*
D11*
X24250000Y-79000000D02*
X24250000Y-81000000D01*
X24250000Y-81000000D02*
X28150000Y-81000000D01*
X24250000Y-79000000D02*
X28150000Y-79000000D01*
D13*
X26200000Y-77500000D02*
X25750000Y-77500000D01*
X26250000Y-77100000D02*
X26800000Y-77500000D01*
X26250000Y-77900000D02*
X26250000Y-77100000D01*
X26850000Y-77500000D02*
X26250000Y-77900000D01*
X27250000Y-77500000D02*
X26850000Y-77500000D01*
X26850000Y-78050000D02*
X26850000Y-76950000D01*
D11*
X28750000Y-78500000D02*
X28750000Y-76500000D01*
X28750000Y-76500000D02*
X24850000Y-76500000D01*
X28750000Y-78500000D02*
X24850000Y-78500000D01*
D13*
X26800000Y-82550000D02*
X27250000Y-82550000D01*
X26750000Y-82950000D02*
X26200000Y-82550000D01*
X26750000Y-82150000D02*
X26750000Y-82950000D01*
X26150000Y-82550000D02*
X26750000Y-82150000D01*
X25750000Y-82550000D02*
X26150000Y-82550000D01*
X26150000Y-82000000D02*
X26150000Y-83100000D01*
D11*
X24250000Y-81550000D02*
X24250000Y-83550000D01*
X24250000Y-83550000D02*
X28150000Y-83550000D01*
X24250000Y-81550000D02*
X28150000Y-81550000D01*
D14*
X33130100Y-82630760D02*
X33130100Y-83169240D01*
X33130100Y-83169240D02*
X33130100Y-82630760D01*
X34069900Y-82630760D02*
X34069900Y-83169240D01*
X34069900Y-83169240D02*
X34069900Y-82630760D01*
D13*
X99837905Y-65417905D02*
X99037905Y-65417905D01*
X99037905Y-65227429D01*
X99076000Y-65113143D01*
X99152190Y-65036952D01*
X99228381Y-64998857D01*
X99380762Y-64960762D01*
X99495048Y-64960762D01*
X99647429Y-64998857D01*
X99723619Y-65036952D01*
X99799810Y-65113143D01*
X99837905Y-65227429D01*
X99837905Y-65417905D01*
X99837905Y-64617905D02*
X99037905Y-64617905D01*
X99799810Y-64275048D02*
X99837905Y-64160762D01*
X99837905Y-63970286D01*
X99799810Y-63894096D01*
X99761714Y-63856000D01*
X99685524Y-63817905D01*
X99609333Y-63817905D01*
X99533143Y-63856000D01*
X99495048Y-63894096D01*
X99456952Y-63970286D01*
X99418857Y-64122667D01*
X99380762Y-64198858D01*
X99342667Y-64236953D01*
X99266476Y-64275048D01*
X99190286Y-64275048D01*
X99114095Y-64236953D01*
X99076000Y-64198858D01*
X99037905Y-64122667D01*
X99037905Y-63932191D01*
X99076000Y-63817905D01*
X99837905Y-63475048D02*
X99037905Y-63475048D01*
X99037905Y-63170286D01*
X99076000Y-63094095D01*
X99114095Y-63056000D01*
X99190286Y-63017905D01*
X99304571Y-63017905D01*
X99380762Y-63056000D01*
X99418857Y-63094095D01*
X99456952Y-63170286D01*
X99456952Y-63475048D01*
X99837905Y-62256000D02*
X99837905Y-62713143D01*
X99837905Y-62484572D02*
X99037905Y-62484572D01*
X99152190Y-62560762D01*
X99228381Y-62636953D01*
X99266476Y-62713143D01*
X99261905Y-106214286D02*
X98880952Y-106480953D01*
X99261905Y-106671429D02*
X98461905Y-106671429D01*
X98461905Y-106366667D01*
X98500000Y-106290476D01*
X98538095Y-106252381D01*
X98614286Y-106214286D01*
X98728571Y-106214286D01*
X98804762Y-106252381D01*
X98842857Y-106290476D01*
X98880952Y-106366667D01*
X98880952Y-106671429D01*
X99261905Y-105452381D02*
X99261905Y-105909524D01*
X99261905Y-105680953D02*
X98461905Y-105680953D01*
X98576190Y-105757143D01*
X98652381Y-105833334D01*
X98690476Y-105909524D01*
X98461905Y-105185714D02*
X98461905Y-104690476D01*
X98766667Y-104957143D01*
X98766667Y-104842857D01*
X98804762Y-104766667D01*
X98842857Y-104728571D01*
X98919048Y-104690476D01*
X99109524Y-104690476D01*
X99185714Y-104728571D01*
X99223810Y-104766667D01*
X99261905Y-104842857D01*
X99261905Y-105071429D01*
X99223810Y-105147619D01*
X99185714Y-105185714D01*
X49519048Y-71261905D02*
X49519048Y-70461905D01*
X50357143Y-71185714D02*
X50319048Y-71223810D01*
X50204762Y-71261905D01*
X50128572Y-71261905D01*
X50014286Y-71223810D01*
X49938095Y-71147619D01*
X49900000Y-71071429D01*
X49861905Y-70919048D01*
X49861905Y-70804762D01*
X49900000Y-70652381D01*
X49938095Y-70576190D01*
X50014286Y-70500000D01*
X50128572Y-70461905D01*
X50204762Y-70461905D01*
X50319048Y-70500000D01*
X50357143Y-70538095D01*
X51119048Y-71261905D02*
X50661905Y-71261905D01*
X50890476Y-71261905D02*
X50890476Y-70461905D01*
X50814286Y-70576190D01*
X50738095Y-70652381D01*
X50661905Y-70690476D01*
X105785714Y-56714286D02*
X105823810Y-56752381D01*
X105861905Y-56866667D01*
X105861905Y-56942857D01*
X105823810Y-57057143D01*
X105747619Y-57133334D01*
X105671429Y-57171429D01*
X105519048Y-57209524D01*
X105404762Y-57209524D01*
X105252381Y-57171429D01*
X105176190Y-57133334D01*
X105100000Y-57057143D01*
X105061905Y-56942857D01*
X105061905Y-56866667D01*
X105100000Y-56752381D01*
X105138095Y-56714286D01*
X105861905Y-55952381D02*
X105861905Y-56409524D01*
X105861905Y-56180953D02*
X105061905Y-56180953D01*
X105176190Y-56257143D01*
X105252381Y-56333334D01*
X105290476Y-56409524D01*
X105404762Y-55495238D02*
X105366667Y-55571429D01*
X105328571Y-55609524D01*
X105252381Y-55647619D01*
X105214286Y-55647619D01*
X105138095Y-55609524D01*
X105100000Y-55571429D01*
X105061905Y-55495238D01*
X105061905Y-55342857D01*
X105100000Y-55266667D01*
X105138095Y-55228571D01*
X105214286Y-55190476D01*
X105252381Y-55190476D01*
X105328571Y-55228571D01*
X105366667Y-55266667D01*
X105404762Y-55342857D01*
X105404762Y-55495238D01*
X105442857Y-55571429D01*
X105480952Y-55609524D01*
X105557143Y-55647619D01*
X105709524Y-55647619D01*
X105785714Y-55609524D01*
X105823810Y-55571429D01*
X105861905Y-55495238D01*
X105861905Y-55342857D01*
X105823810Y-55266667D01*
X105785714Y-55228571D01*
X105709524Y-55190476D01*
X105557143Y-55190476D01*
X105480952Y-55228571D01*
X105442857Y-55266667D01*
X105404762Y-55342857D01*
X92585714Y-54785714D02*
X92547619Y-54823810D01*
X92433333Y-54861905D01*
X92357143Y-54861905D01*
X92242857Y-54823810D01*
X92166666Y-54747619D01*
X92128571Y-54671429D01*
X92090476Y-54519048D01*
X92090476Y-54404762D01*
X92128571Y-54252381D01*
X92166666Y-54176190D01*
X92242857Y-54100000D01*
X92357143Y-54061905D01*
X92433333Y-54061905D01*
X92547619Y-54100000D01*
X92585714Y-54138095D01*
X93347619Y-54861905D02*
X92890476Y-54861905D01*
X93119047Y-54861905D02*
X93119047Y-54061905D01*
X93042857Y-54176190D01*
X92966666Y-54252381D01*
X92890476Y-54290476D01*
X93728571Y-54861905D02*
X93880952Y-54861905D01*
X93957143Y-54823810D01*
X93995238Y-54785714D01*
X94071429Y-54671429D01*
X94109524Y-54519048D01*
X94109524Y-54214286D01*
X94071429Y-54138095D01*
X94033333Y-54100000D01*
X93957143Y-54061905D01*
X93804762Y-54061905D01*
X93728571Y-54100000D01*
X93690476Y-54138095D01*
X93652381Y-54214286D01*
X93652381Y-54404762D01*
X93690476Y-54480952D01*
X93728571Y-54519048D01*
X93804762Y-54557143D01*
X93957143Y-54557143D01*
X94033333Y-54519048D01*
X94071429Y-54480952D01*
X94109524Y-54404762D01*
X111766667Y-49061905D02*
X111500000Y-48680952D01*
X111309524Y-49061905D02*
X111309524Y-48261905D01*
X111614286Y-48261905D01*
X111690477Y-48300000D01*
X111728572Y-48338095D01*
X111766667Y-48414286D01*
X111766667Y-48528571D01*
X111728572Y-48604762D01*
X111690477Y-48642857D01*
X111614286Y-48680952D01*
X111309524Y-48680952D01*
X112452381Y-48261905D02*
X112300000Y-48261905D01*
X112223810Y-48300000D01*
X112185715Y-48338095D01*
X112109524Y-48452381D01*
X112071429Y-48604762D01*
X112071429Y-48909524D01*
X112109524Y-48985714D01*
X112147619Y-49023810D01*
X112223810Y-49061905D01*
X112376191Y-49061905D01*
X112452381Y-49023810D01*
X112490477Y-48985714D01*
X112528572Y-48909524D01*
X112528572Y-48719048D01*
X112490477Y-48642857D01*
X112452381Y-48604762D01*
X112376191Y-48566667D01*
X112223810Y-48566667D01*
X112147619Y-48604762D01*
X112109524Y-48642857D01*
X112071429Y-48719048D01*
X51461905Y-54033333D02*
X51080952Y-54300000D01*
X51461905Y-54490476D02*
X50661905Y-54490476D01*
X50661905Y-54185714D01*
X50700000Y-54109523D01*
X50738095Y-54071428D01*
X50814286Y-54033333D01*
X50928571Y-54033333D01*
X51004762Y-54071428D01*
X51042857Y-54109523D01*
X51080952Y-54185714D01*
X51080952Y-54490476D01*
X51004762Y-53576190D02*
X50966667Y-53652381D01*
X50928571Y-53690476D01*
X50852381Y-53728571D01*
X50814286Y-53728571D01*
X50738095Y-53690476D01*
X50700000Y-53652381D01*
X50661905Y-53576190D01*
X50661905Y-53423809D01*
X50700000Y-53347619D01*
X50738095Y-53309523D01*
X50814286Y-53271428D01*
X50852381Y-53271428D01*
X50928571Y-53309523D01*
X50966667Y-53347619D01*
X51004762Y-53423809D01*
X51004762Y-53576190D01*
X51042857Y-53652381D01*
X51080952Y-53690476D01*
X51157143Y-53728571D01*
X51309524Y-53728571D01*
X51385714Y-53690476D01*
X51423810Y-53652381D01*
X51461905Y-53576190D01*
X51461905Y-53423809D01*
X51423810Y-53347619D01*
X51385714Y-53309523D01*
X51309524Y-53271428D01*
X51157143Y-53271428D01*
X51080952Y-53309523D01*
X51042857Y-53347619D01*
X51004762Y-53423809D01*
X112791667Y-77336905D02*
X112525000Y-76955952D01*
X112334524Y-77336905D02*
X112334524Y-76536905D01*
X112639286Y-76536905D01*
X112715477Y-76575000D01*
X112753572Y-76613095D01*
X112791667Y-76689286D01*
X112791667Y-76803571D01*
X112753572Y-76879762D01*
X112715477Y-76917857D01*
X112639286Y-76955952D01*
X112334524Y-76955952D01*
X113172619Y-77336905D02*
X113325000Y-77336905D01*
X113401191Y-77298810D01*
X113439286Y-77260714D01*
X113515477Y-77146429D01*
X113553572Y-76994048D01*
X113553572Y-76689286D01*
X113515477Y-76613095D01*
X113477381Y-76575000D01*
X113401191Y-76536905D01*
X113248810Y-76536905D01*
X113172619Y-76575000D01*
X113134524Y-76613095D01*
X113096429Y-76689286D01*
X113096429Y-76879762D01*
X113134524Y-76955952D01*
X113172619Y-76994048D01*
X113248810Y-77032143D01*
X113401191Y-77032143D01*
X113477381Y-76994048D01*
X113515477Y-76955952D01*
X113553572Y-76879762D01*
X106761905Y-80914286D02*
X106380952Y-81180953D01*
X106761905Y-81371429D02*
X105961905Y-81371429D01*
X105961905Y-81066667D01*
X106000000Y-80990476D01*
X106038095Y-80952381D01*
X106114286Y-80914286D01*
X106228571Y-80914286D01*
X106304762Y-80952381D01*
X106342857Y-80990476D01*
X106380952Y-81066667D01*
X106380952Y-81371429D01*
X106761905Y-80152381D02*
X106761905Y-80609524D01*
X106761905Y-80380953D02*
X105961905Y-80380953D01*
X106076190Y-80457143D01*
X106152381Y-80533334D01*
X106190476Y-80609524D01*
X105961905Y-79657143D02*
X105961905Y-79580952D01*
X106000000Y-79504762D01*
X106038095Y-79466667D01*
X106114286Y-79428571D01*
X106266667Y-79390476D01*
X106457143Y-79390476D01*
X106609524Y-79428571D01*
X106685714Y-79466667D01*
X106723810Y-79504762D01*
X106761905Y-79580952D01*
X106761905Y-79657143D01*
X106723810Y-79733333D01*
X106685714Y-79771429D01*
X106609524Y-79809524D01*
X106457143Y-79847619D01*
X106266667Y-79847619D01*
X106114286Y-79809524D01*
X106038095Y-79771429D01*
X106000000Y-79733333D01*
X105961905Y-79657143D01*
X84885714Y-53261905D02*
X84619047Y-52880952D01*
X84428571Y-53261905D02*
X84428571Y-52461905D01*
X84733333Y-52461905D01*
X84809524Y-52500000D01*
X84847619Y-52538095D01*
X84885714Y-52614286D01*
X84885714Y-52728571D01*
X84847619Y-52804762D01*
X84809524Y-52842857D01*
X84733333Y-52880952D01*
X84428571Y-52880952D01*
X85647619Y-53261905D02*
X85190476Y-53261905D01*
X85419047Y-53261905D02*
X85419047Y-52461905D01*
X85342857Y-52576190D01*
X85266666Y-52652381D01*
X85190476Y-52690476D01*
X86409524Y-53261905D02*
X85952381Y-53261905D01*
X86180952Y-53261905D02*
X86180952Y-52461905D01*
X86104762Y-52576190D01*
X86028571Y-52652381D01*
X85952381Y-52690476D01*
X52066667Y-66885714D02*
X52028572Y-66923810D01*
X51914286Y-66961905D01*
X51838096Y-66961905D01*
X51723810Y-66923810D01*
X51647619Y-66847619D01*
X51609524Y-66771429D01*
X51571429Y-66619048D01*
X51571429Y-66504762D01*
X51609524Y-66352381D01*
X51647619Y-66276190D01*
X51723810Y-66200000D01*
X51838096Y-66161905D01*
X51914286Y-66161905D01*
X52028572Y-66200000D01*
X52066667Y-66238095D01*
X52371429Y-66238095D02*
X52409524Y-66200000D01*
X52485715Y-66161905D01*
X52676191Y-66161905D01*
X52752381Y-66200000D01*
X52790477Y-66238095D01*
X52828572Y-66314286D01*
X52828572Y-66390476D01*
X52790477Y-66504762D01*
X52333334Y-66961905D01*
X52828572Y-66961905D01*
X62685714Y-86233333D02*
X62723810Y-86271428D01*
X62761905Y-86385714D01*
X62761905Y-86461904D01*
X62723810Y-86576190D01*
X62647619Y-86652381D01*
X62571429Y-86690476D01*
X62419048Y-86728571D01*
X62304762Y-86728571D01*
X62152381Y-86690476D01*
X62076190Y-86652381D01*
X62000000Y-86576190D01*
X61961905Y-86461904D01*
X61961905Y-86385714D01*
X62000000Y-86271428D01*
X62038095Y-86233333D01*
X62228571Y-85547619D02*
X62761905Y-85547619D01*
X61923810Y-85738095D02*
X62495238Y-85928571D01*
X62495238Y-85433333D01*
X92585714Y-90033333D02*
X92623810Y-90071428D01*
X92661905Y-90185714D01*
X92661905Y-90261904D01*
X92623810Y-90376190D01*
X92547619Y-90452381D01*
X92471429Y-90490476D01*
X92319048Y-90528571D01*
X92204762Y-90528571D01*
X92052381Y-90490476D01*
X91976190Y-90452381D01*
X91900000Y-90376190D01*
X91861905Y-90261904D01*
X91861905Y-90185714D01*
X91900000Y-90071428D01*
X91938095Y-90033333D01*
X91861905Y-89347619D02*
X91861905Y-89500000D01*
X91900000Y-89576190D01*
X91938095Y-89614285D01*
X92052381Y-89690476D01*
X92204762Y-89728571D01*
X92509524Y-89728571D01*
X92585714Y-89690476D01*
X92623810Y-89652381D01*
X92661905Y-89576190D01*
X92661905Y-89423809D01*
X92623810Y-89347619D01*
X92585714Y-89309523D01*
X92509524Y-89271428D01*
X92319048Y-89271428D01*
X92242857Y-89309523D01*
X92204762Y-89347619D01*
X92166667Y-89423809D01*
X92166667Y-89576190D01*
X92204762Y-89652381D01*
X92242857Y-89690476D01*
X92319048Y-89728571D01*
X88085714Y-56685714D02*
X88047619Y-56723810D01*
X87933333Y-56761905D01*
X87857143Y-56761905D01*
X87742857Y-56723810D01*
X87666666Y-56647619D01*
X87628571Y-56571429D01*
X87590476Y-56419048D01*
X87590476Y-56304762D01*
X87628571Y-56152381D01*
X87666666Y-56076190D01*
X87742857Y-56000000D01*
X87857143Y-55961905D01*
X87933333Y-55961905D01*
X88047619Y-56000000D01*
X88085714Y-56038095D01*
X88390476Y-56038095D02*
X88428571Y-56000000D01*
X88504762Y-55961905D01*
X88695238Y-55961905D01*
X88771428Y-56000000D01*
X88809524Y-56038095D01*
X88847619Y-56114286D01*
X88847619Y-56190476D01*
X88809524Y-56304762D01*
X88352381Y-56761905D01*
X88847619Y-56761905D01*
X89342857Y-55961905D02*
X89419048Y-55961905D01*
X89495238Y-56000000D01*
X89533333Y-56038095D01*
X89571429Y-56114286D01*
X89609524Y-56266667D01*
X89609524Y-56457143D01*
X89571429Y-56609524D01*
X89533333Y-56685714D01*
X89495238Y-56723810D01*
X89419048Y-56761905D01*
X89342857Y-56761905D01*
X89266667Y-56723810D01*
X89228571Y-56685714D01*
X89190476Y-56609524D01*
X89152381Y-56457143D01*
X89152381Y-56266667D01*
X89190476Y-56114286D01*
X89228571Y-56038095D01*
X89266667Y-56000000D01*
X89342857Y-55961905D01*
X92619048Y-74261905D02*
X92619048Y-73461905D01*
X93457143Y-74185714D02*
X93419048Y-74223810D01*
X93304762Y-74261905D01*
X93228572Y-74261905D01*
X93114286Y-74223810D01*
X93038095Y-74147619D01*
X93000000Y-74071429D01*
X92961905Y-73919048D01*
X92961905Y-73804762D01*
X93000000Y-73652381D01*
X93038095Y-73576190D01*
X93114286Y-73500000D01*
X93228572Y-73461905D01*
X93304762Y-73461905D01*
X93419048Y-73500000D01*
X93457143Y-73538095D01*
X94180953Y-73461905D02*
X93800000Y-73461905D01*
X93761905Y-73842857D01*
X93800000Y-73804762D01*
X93876191Y-73766667D01*
X94066667Y-73766667D01*
X94142857Y-73804762D01*
X94180953Y-73842857D01*
X94219048Y-73919048D01*
X94219048Y-74109524D01*
X94180953Y-74185714D01*
X94142857Y-74223810D01*
X94066667Y-74261905D01*
X93876191Y-74261905D01*
X93800000Y-74223810D01*
X93761905Y-74185714D01*
X114473810Y-83388095D02*
X114397619Y-83350000D01*
X114321429Y-83273810D01*
X114207143Y-83159524D01*
X114130952Y-83121429D01*
X114054762Y-83121429D01*
X114092857Y-83311905D02*
X114016667Y-83273810D01*
X113940476Y-83197619D01*
X113902381Y-83045238D01*
X113902381Y-82778571D01*
X113940476Y-82626190D01*
X114016667Y-82550000D01*
X114092857Y-82511905D01*
X114245238Y-82511905D01*
X114321429Y-82550000D01*
X114397619Y-82626190D01*
X114435714Y-82778571D01*
X114435714Y-83045238D01*
X114397619Y-83197619D01*
X114321429Y-83273810D01*
X114245238Y-83311905D01*
X114092857Y-83311905D01*
X115197619Y-83311905D02*
X114740476Y-83311905D01*
X114969047Y-83311905D02*
X114969047Y-82511905D01*
X114892857Y-82626190D01*
X114816666Y-82702381D01*
X114740476Y-82740476D01*
X92423810Y-49838095D02*
X92347619Y-49800000D01*
X92271429Y-49723810D01*
X92157143Y-49609524D01*
X92080952Y-49571429D01*
X92004762Y-49571429D01*
X92042857Y-49761905D02*
X91966667Y-49723810D01*
X91890476Y-49647619D01*
X91852381Y-49495238D01*
X91852381Y-49228571D01*
X91890476Y-49076190D01*
X91966667Y-49000000D01*
X92042857Y-48961905D01*
X92195238Y-48961905D01*
X92271429Y-49000000D01*
X92347619Y-49076190D01*
X92385714Y-49228571D01*
X92385714Y-49495238D01*
X92347619Y-49647619D01*
X92271429Y-49723810D01*
X92195238Y-49761905D01*
X92042857Y-49761905D01*
X92690476Y-49038095D02*
X92728571Y-49000000D01*
X92804762Y-48961905D01*
X92995238Y-48961905D01*
X93071428Y-49000000D01*
X93109524Y-49038095D01*
X93147619Y-49114286D01*
X93147619Y-49190476D01*
X93109524Y-49304762D01*
X92652381Y-49761905D01*
X93147619Y-49761905D01*
X103973810Y-101088095D02*
X103897619Y-101050000D01*
X103821429Y-100973810D01*
X103707143Y-100859524D01*
X103630952Y-100821429D01*
X103554762Y-100821429D01*
X103592857Y-101011905D02*
X103516667Y-100973810D01*
X103440476Y-100897619D01*
X103402381Y-100745238D01*
X103402381Y-100478571D01*
X103440476Y-100326190D01*
X103516667Y-100250000D01*
X103592857Y-100211905D01*
X103745238Y-100211905D01*
X103821429Y-100250000D01*
X103897619Y-100326190D01*
X103935714Y-100478571D01*
X103935714Y-100745238D01*
X103897619Y-100897619D01*
X103821429Y-100973810D01*
X103745238Y-101011905D01*
X103592857Y-101011905D01*
X104202381Y-100211905D02*
X104697619Y-100211905D01*
X104430952Y-100516667D01*
X104545238Y-100516667D01*
X104621428Y-100554762D01*
X104659524Y-100592857D01*
X104697619Y-100669048D01*
X104697619Y-100859524D01*
X104659524Y-100935714D01*
X104621428Y-100973810D01*
X104545238Y-101011905D01*
X104316666Y-101011905D01*
X104240476Y-100973810D01*
X104202381Y-100935714D01*
X112961905Y-112233333D02*
X112580952Y-112500000D01*
X112961905Y-112690476D02*
X112161905Y-112690476D01*
X112161905Y-112385714D01*
X112200000Y-112309523D01*
X112238095Y-112271428D01*
X112314286Y-112233333D01*
X112428571Y-112233333D01*
X112504762Y-112271428D01*
X112542857Y-112309523D01*
X112580952Y-112385714D01*
X112580952Y-112690476D01*
X112961905Y-111471428D02*
X112961905Y-111928571D01*
X112961905Y-111700000D02*
X112161905Y-111700000D01*
X112276190Y-111776190D01*
X112352381Y-111852381D01*
X112390476Y-111928571D01*
X113061905Y-116233333D02*
X112680952Y-116500000D01*
X113061905Y-116690476D02*
X112261905Y-116690476D01*
X112261905Y-116385714D01*
X112300000Y-116309523D01*
X112338095Y-116271428D01*
X112414286Y-116233333D01*
X112528571Y-116233333D01*
X112604762Y-116271428D01*
X112642857Y-116309523D01*
X112680952Y-116385714D01*
X112680952Y-116690476D01*
X112338095Y-115928571D02*
X112300000Y-115890476D01*
X112261905Y-115814285D01*
X112261905Y-115623809D01*
X112300000Y-115547619D01*
X112338095Y-115509523D01*
X112414286Y-115471428D01*
X112490476Y-115471428D01*
X112604762Y-115509523D01*
X113061905Y-115966666D01*
X113061905Y-115471428D01*
X77366667Y-54261905D02*
X77100000Y-53880952D01*
X76909524Y-54261905D02*
X76909524Y-53461905D01*
X77214286Y-53461905D01*
X77290477Y-53500000D01*
X77328572Y-53538095D01*
X77366667Y-53614286D01*
X77366667Y-53728571D01*
X77328572Y-53804762D01*
X77290477Y-53842857D01*
X77214286Y-53880952D01*
X76909524Y-53880952D01*
X77633334Y-53461905D02*
X78128572Y-53461905D01*
X77861905Y-53766667D01*
X77976191Y-53766667D01*
X78052381Y-53804762D01*
X78090477Y-53842857D01*
X78128572Y-53919048D01*
X78128572Y-54109524D01*
X78090477Y-54185714D01*
X78052381Y-54223810D01*
X77976191Y-54261905D01*
X77747619Y-54261905D01*
X77671429Y-54223810D01*
X77633334Y-54185714D01*
X60066667Y-92761905D02*
X59800000Y-92380952D01*
X59609524Y-92761905D02*
X59609524Y-91961905D01*
X59914286Y-91961905D01*
X59990477Y-92000000D01*
X60028572Y-92038095D01*
X60066667Y-92114286D01*
X60066667Y-92228571D01*
X60028572Y-92304762D01*
X59990477Y-92342857D01*
X59914286Y-92380952D01*
X59609524Y-92380952D01*
X60752381Y-92228571D02*
X60752381Y-92761905D01*
X60561905Y-91923810D02*
X60371429Y-92495238D01*
X60866667Y-92495238D01*
X56861905Y-89333333D02*
X56480952Y-89600000D01*
X56861905Y-89790476D02*
X56061905Y-89790476D01*
X56061905Y-89485714D01*
X56100000Y-89409523D01*
X56138095Y-89371428D01*
X56214286Y-89333333D01*
X56328571Y-89333333D01*
X56404762Y-89371428D01*
X56442857Y-89409523D01*
X56480952Y-89485714D01*
X56480952Y-89790476D01*
X56061905Y-88609523D02*
X56061905Y-88990476D01*
X56442857Y-89028571D01*
X56404762Y-88990476D01*
X56366667Y-88914285D01*
X56366667Y-88723809D01*
X56404762Y-88647619D01*
X56442857Y-88609523D01*
X56519048Y-88571428D01*
X56709524Y-88571428D01*
X56785714Y-88609523D01*
X56823810Y-88647619D01*
X56861905Y-88723809D01*
X56861905Y-88914285D01*
X56823810Y-88990476D01*
X56785714Y-89028571D01*
X105666667Y-111761905D02*
X105400000Y-111380952D01*
X105209524Y-111761905D02*
X105209524Y-110961905D01*
X105514286Y-110961905D01*
X105590477Y-111000000D01*
X105628572Y-111038095D01*
X105666667Y-111114286D01*
X105666667Y-111228571D01*
X105628572Y-111304762D01*
X105590477Y-111342857D01*
X105514286Y-111380952D01*
X105209524Y-111380952D01*
X105933334Y-110961905D02*
X106466667Y-110961905D01*
X106123810Y-111761905D01*
X87785714Y-49561905D02*
X87519047Y-49180952D01*
X87328571Y-49561905D02*
X87328571Y-48761905D01*
X87633333Y-48761905D01*
X87709524Y-48800000D01*
X87747619Y-48838095D01*
X87785714Y-48914286D01*
X87785714Y-49028571D01*
X87747619Y-49104762D01*
X87709524Y-49142857D01*
X87633333Y-49180952D01*
X87328571Y-49180952D01*
X88547619Y-49561905D02*
X88090476Y-49561905D01*
X88319047Y-49561905D02*
X88319047Y-48761905D01*
X88242857Y-48876190D01*
X88166666Y-48952381D01*
X88090476Y-48990476D01*
X88852381Y-48838095D02*
X88890476Y-48800000D01*
X88966667Y-48761905D01*
X89157143Y-48761905D01*
X89233333Y-48800000D01*
X89271429Y-48838095D01*
X89309524Y-48914286D01*
X89309524Y-48990476D01*
X89271429Y-49104762D01*
X88814286Y-49561905D01*
X89309524Y-49561905D01*
X104961905Y-108214286D02*
X104580952Y-108480953D01*
X104961905Y-108671429D02*
X104161905Y-108671429D01*
X104161905Y-108366667D01*
X104200000Y-108290476D01*
X104238095Y-108252381D01*
X104314286Y-108214286D01*
X104428571Y-108214286D01*
X104504762Y-108252381D01*
X104542857Y-108290476D01*
X104580952Y-108366667D01*
X104580952Y-108671429D01*
X104961905Y-107452381D02*
X104961905Y-107909524D01*
X104961905Y-107680953D02*
X104161905Y-107680953D01*
X104276190Y-107757143D01*
X104352381Y-107833334D01*
X104390476Y-107909524D01*
X104428571Y-106766667D02*
X104961905Y-106766667D01*
X104123810Y-106957143D02*
X104695238Y-107147619D01*
X104695238Y-106652381D01*
X79061905Y-83914286D02*
X78680952Y-84180953D01*
X79061905Y-84371429D02*
X78261905Y-84371429D01*
X78261905Y-84066667D01*
X78300000Y-83990476D01*
X78338095Y-83952381D01*
X78414286Y-83914286D01*
X78528571Y-83914286D01*
X78604762Y-83952381D01*
X78642857Y-83990476D01*
X78680952Y-84066667D01*
X78680952Y-84371429D01*
X79061905Y-83152381D02*
X79061905Y-83609524D01*
X79061905Y-83380953D02*
X78261905Y-83380953D01*
X78376190Y-83457143D01*
X78452381Y-83533334D01*
X78490476Y-83609524D01*
X78261905Y-82428571D02*
X78261905Y-82809524D01*
X78642857Y-82847619D01*
X78604762Y-82809524D01*
X78566667Y-82733333D01*
X78566667Y-82542857D01*
X78604762Y-82466667D01*
X78642857Y-82428571D01*
X78719048Y-82390476D01*
X78909524Y-82390476D01*
X78985714Y-82428571D01*
X79023810Y-82466667D01*
X79061905Y-82542857D01*
X79061905Y-82733333D01*
X79023810Y-82809524D01*
X78985714Y-82847619D01*
X55761905Y-55814286D02*
X55380952Y-56080953D01*
X55761905Y-56271429D02*
X54961905Y-56271429D01*
X54961905Y-55966667D01*
X55000000Y-55890476D01*
X55038095Y-55852381D01*
X55114286Y-55814286D01*
X55228571Y-55814286D01*
X55304762Y-55852381D01*
X55342857Y-55890476D01*
X55380952Y-55966667D01*
X55380952Y-56271429D01*
X55761905Y-55052381D02*
X55761905Y-55509524D01*
X55761905Y-55280953D02*
X54961905Y-55280953D01*
X55076190Y-55357143D01*
X55152381Y-55433334D01*
X55190476Y-55509524D01*
X54961905Y-54366667D02*
X54961905Y-54519048D01*
X55000000Y-54595238D01*
X55038095Y-54633333D01*
X55152381Y-54709524D01*
X55304762Y-54747619D01*
X55609524Y-54747619D01*
X55685714Y-54709524D01*
X55723810Y-54671429D01*
X55761905Y-54595238D01*
X55761905Y-54442857D01*
X55723810Y-54366667D01*
X55685714Y-54328571D01*
X55609524Y-54290476D01*
X55419048Y-54290476D01*
X55342857Y-54328571D01*
X55304762Y-54366667D01*
X55266667Y-54442857D01*
X55266667Y-54595238D01*
X55304762Y-54671429D01*
X55342857Y-54709524D01*
X55419048Y-54747619D01*
X40385714Y-52961905D02*
X40119047Y-52580952D01*
X39928571Y-52961905D02*
X39928571Y-52161905D01*
X40233333Y-52161905D01*
X40309524Y-52200000D01*
X40347619Y-52238095D01*
X40385714Y-52314286D01*
X40385714Y-52428571D01*
X40347619Y-52504762D01*
X40309524Y-52542857D01*
X40233333Y-52580952D01*
X39928571Y-52580952D01*
X41147619Y-52961905D02*
X40690476Y-52961905D01*
X40919047Y-52961905D02*
X40919047Y-52161905D01*
X40842857Y-52276190D01*
X40766666Y-52352381D01*
X40690476Y-52390476D01*
X41414286Y-52161905D02*
X41947619Y-52161905D01*
X41604762Y-52961905D01*
X64485714Y-69185714D02*
X64447619Y-69223810D01*
X64333333Y-69261905D01*
X64257143Y-69261905D01*
X64142857Y-69223810D01*
X64066666Y-69147619D01*
X64028571Y-69071429D01*
X63990476Y-68919048D01*
X63990476Y-68804762D01*
X64028571Y-68652381D01*
X64066666Y-68576190D01*
X64142857Y-68500000D01*
X64257143Y-68461905D01*
X64333333Y-68461905D01*
X64447619Y-68500000D01*
X64485714Y-68538095D01*
X65247619Y-69261905D02*
X64790476Y-69261905D01*
X65019047Y-69261905D02*
X65019047Y-68461905D01*
X64942857Y-68576190D01*
X64866666Y-68652381D01*
X64790476Y-68690476D01*
X65742857Y-68461905D02*
X65819048Y-68461905D01*
X65895238Y-68500000D01*
X65933333Y-68538095D01*
X65971429Y-68614286D01*
X66009524Y-68766667D01*
X66009524Y-68957143D01*
X65971429Y-69109524D01*
X65933333Y-69185714D01*
X65895238Y-69223810D01*
X65819048Y-69261905D01*
X65742857Y-69261905D01*
X65666667Y-69223810D01*
X65628571Y-69185714D01*
X65590476Y-69109524D01*
X65552381Y-68957143D01*
X65552381Y-68766667D01*
X65590476Y-68614286D01*
X65628571Y-68538095D01*
X65666667Y-68500000D01*
X65742857Y-68461905D01*
X75985714Y-90714286D02*
X76023810Y-90752381D01*
X76061905Y-90866667D01*
X76061905Y-90942857D01*
X76023810Y-91057143D01*
X75947619Y-91133334D01*
X75871429Y-91171429D01*
X75719048Y-91209524D01*
X75604762Y-91209524D01*
X75452381Y-91171429D01*
X75376190Y-91133334D01*
X75300000Y-91057143D01*
X75261905Y-90942857D01*
X75261905Y-90866667D01*
X75300000Y-90752381D01*
X75338095Y-90714286D01*
X76061905Y-89952381D02*
X76061905Y-90409524D01*
X76061905Y-90180953D02*
X75261905Y-90180953D01*
X75376190Y-90257143D01*
X75452381Y-90333334D01*
X75490476Y-90409524D01*
X75338095Y-89647619D02*
X75300000Y-89609524D01*
X75261905Y-89533333D01*
X75261905Y-89342857D01*
X75300000Y-89266667D01*
X75338095Y-89228571D01*
X75414286Y-89190476D01*
X75490476Y-89190476D01*
X75604762Y-89228571D01*
X76061905Y-89685714D01*
X76061905Y-89190476D01*
X106135714Y-90885714D02*
X106097619Y-90923810D01*
X105983333Y-90961905D01*
X105907143Y-90961905D01*
X105792857Y-90923810D01*
X105716666Y-90847619D01*
X105678571Y-90771429D01*
X105640476Y-90619048D01*
X105640476Y-90504762D01*
X105678571Y-90352381D01*
X105716666Y-90276190D01*
X105792857Y-90200000D01*
X105907143Y-90161905D01*
X105983333Y-90161905D01*
X106097619Y-90200000D01*
X106135714Y-90238095D01*
X106897619Y-90961905D02*
X106440476Y-90961905D01*
X106669047Y-90961905D02*
X106669047Y-90161905D01*
X106592857Y-90276190D01*
X106516666Y-90352381D01*
X106440476Y-90390476D01*
X107583333Y-90161905D02*
X107430952Y-90161905D01*
X107354762Y-90200000D01*
X107316667Y-90238095D01*
X107240476Y-90352381D01*
X107202381Y-90504762D01*
X107202381Y-90809524D01*
X107240476Y-90885714D01*
X107278571Y-90923810D01*
X107354762Y-90961905D01*
X107507143Y-90961905D01*
X107583333Y-90923810D01*
X107621429Y-90885714D01*
X107659524Y-90809524D01*
X107659524Y-90619048D01*
X107621429Y-90542857D01*
X107583333Y-90504762D01*
X107507143Y-90466667D01*
X107354762Y-90466667D01*
X107278571Y-90504762D01*
X107240476Y-90542857D01*
X107202381Y-90619048D01*
D11*
X105419048Y-93271429D02*
X106180953Y-93271429D01*
X105800001Y-93652381D02*
X105800001Y-92890476D01*
D13*
X99661905Y-49490476D02*
X98861905Y-49490476D01*
X98861905Y-49300000D01*
X98900000Y-49185714D01*
X98976190Y-49109523D01*
X99052381Y-49071428D01*
X99204762Y-49033333D01*
X99319048Y-49033333D01*
X99471429Y-49071428D01*
X99547619Y-49109523D01*
X99623810Y-49185714D01*
X99661905Y-49300000D01*
X99661905Y-49490476D01*
X99661905Y-48271428D02*
X99661905Y-48728571D01*
X99661905Y-48500000D02*
X98861905Y-48500000D01*
X98976190Y-48576190D01*
X99052381Y-48652381D01*
X99090476Y-48728571D01*
X73119048Y-54961905D02*
X73119048Y-54161905D01*
X73957143Y-54885714D02*
X73919048Y-54923810D01*
X73804762Y-54961905D01*
X73728572Y-54961905D01*
X73614286Y-54923810D01*
X73538095Y-54847619D01*
X73500000Y-54771429D01*
X73461905Y-54619048D01*
X73461905Y-54504762D01*
X73500000Y-54352381D01*
X73538095Y-54276190D01*
X73614286Y-54200000D01*
X73728572Y-54161905D01*
X73804762Y-54161905D01*
X73919048Y-54200000D01*
X73957143Y-54238095D01*
X74223810Y-54161905D02*
X74719048Y-54161905D01*
X74452381Y-54466667D01*
X74566667Y-54466667D01*
X74642857Y-54504762D01*
X74680953Y-54542857D01*
X74719048Y-54619048D01*
X74719048Y-54809524D01*
X74680953Y-54885714D01*
X74642857Y-54923810D01*
X74566667Y-54961905D01*
X74338095Y-54961905D01*
X74261905Y-54923810D01*
X74223810Y-54885714D01*
X91733333Y-80201905D02*
X91733333Y-79401905D01*
X92000000Y-79973333D01*
X92266667Y-79401905D01*
X92266667Y-80201905D01*
X92800000Y-79401905D02*
X92952381Y-79401905D01*
X93028572Y-79440000D01*
X93104762Y-79516190D01*
X93142857Y-79668571D01*
X93142857Y-79935238D01*
X93104762Y-80087619D01*
X93028572Y-80163810D01*
X92952381Y-80201905D01*
X92800000Y-80201905D01*
X92723810Y-80163810D01*
X92647619Y-80087619D01*
X92609524Y-79935238D01*
X92609524Y-79668571D01*
X92647619Y-79516190D01*
X92723810Y-79440000D01*
X92800000Y-79401905D01*
X93485714Y-80201905D02*
X93485714Y-79401905D01*
X93676190Y-79401905D01*
X93790476Y-79440000D01*
X93866667Y-79516190D01*
X93904762Y-79592381D01*
X93942857Y-79744762D01*
X93942857Y-79859048D01*
X93904762Y-80011429D01*
X93866667Y-80087619D01*
X93790476Y-80163810D01*
X93676190Y-80201905D01*
X93485714Y-80201905D01*
X94704762Y-80201905D02*
X94247619Y-80201905D01*
X94476190Y-80201905D02*
X94476190Y-79401905D01*
X94400000Y-79516190D01*
X94323809Y-79592381D01*
X94247619Y-79630476D01*
D16*
X89338095Y-84682857D02*
X90861905Y-84682857D01*
X90100000Y-85444762D02*
X90100000Y-83920952D01*
D13*
X94361905Y-91242857D02*
X93561905Y-91242857D01*
X94361905Y-90861905D02*
X93561905Y-90861905D01*
X94361905Y-90404762D01*
X93561905Y-90404762D01*
X94361905Y-90023810D02*
X93561905Y-90023810D01*
X93561905Y-89719048D01*
X93600000Y-89642857D01*
X93638095Y-89604762D01*
X93714286Y-89566667D01*
X93828571Y-89566667D01*
X93904762Y-89604762D01*
X93942857Y-89642857D01*
X93980952Y-89719048D01*
X93980952Y-90023810D01*
X93561905Y-89223810D02*
X94209524Y-89223810D01*
X94285714Y-89185715D01*
X94323810Y-89147619D01*
X94361905Y-89071429D01*
X94361905Y-88919048D01*
X94323810Y-88842857D01*
X94285714Y-88804762D01*
X94209524Y-88766667D01*
X93561905Y-88766667D01*
X93561905Y-88500001D02*
X93561905Y-88042858D01*
X94361905Y-88271429D02*
X93561905Y-88271429D01*
X71261905Y-92823809D02*
X71261905Y-92671428D01*
X71300000Y-92595237D01*
X71376190Y-92519047D01*
X71528571Y-92480952D01*
X71795238Y-92480952D01*
X71947619Y-92519047D01*
X72023810Y-92595237D01*
X72061905Y-92671428D01*
X72061905Y-92823809D01*
X72023810Y-92899999D01*
X71947619Y-92976190D01*
X71795238Y-93014285D01*
X71528571Y-93014285D01*
X71376190Y-92976190D01*
X71300000Y-92899999D01*
X71261905Y-92823809D01*
X71261905Y-92138095D02*
X71909524Y-92138095D01*
X71985714Y-92100000D01*
X72023810Y-92061904D01*
X72061905Y-91985714D01*
X72061905Y-91833333D01*
X72023810Y-91757142D01*
X71985714Y-91719047D01*
X71909524Y-91680952D01*
X71261905Y-91680952D01*
X71261905Y-91414286D02*
X71261905Y-90957143D01*
X72061905Y-91185714D02*
X71261905Y-91185714D01*
X72061905Y-90690476D02*
X71261905Y-90690476D01*
X71261905Y-90385714D01*
X71300000Y-90309523D01*
X71338095Y-90271428D01*
X71414286Y-90233333D01*
X71528571Y-90233333D01*
X71604762Y-90271428D01*
X71642857Y-90309523D01*
X71680952Y-90385714D01*
X71680952Y-90690476D01*
X71261905Y-89890476D02*
X71909524Y-89890476D01*
X71985714Y-89852381D01*
X72023810Y-89814285D01*
X72061905Y-89738095D01*
X72061905Y-89585714D01*
X72023810Y-89509523D01*
X71985714Y-89471428D01*
X71909524Y-89433333D01*
X71261905Y-89433333D01*
X71261905Y-89166667D02*
X71261905Y-88709524D01*
X72061905Y-88938095D02*
X71261905Y-88938095D01*
D16*
X75738095Y-86242857D02*
X77261905Y-86242857D01*
X76500000Y-87004762D02*
X76500000Y-85480952D01*
X75838095Y-95182857D02*
X77361905Y-95182857D01*
X89338095Y-95182857D02*
X90861905Y-95182857D01*
D13*
X66366667Y-73061905D02*
X66100000Y-72680952D01*
X65909524Y-73061905D02*
X65909524Y-72261905D01*
X66214286Y-72261905D01*
X66290477Y-72300000D01*
X66328572Y-72338095D01*
X66366667Y-72414286D01*
X66366667Y-72528571D01*
X66328572Y-72604762D01*
X66290477Y-72642857D01*
X66214286Y-72680952D01*
X65909524Y-72680952D01*
X66709524Y-73061905D02*
X66709524Y-72261905D01*
X67014286Y-72261905D01*
X67090477Y-72300000D01*
X67128572Y-72338095D01*
X67166667Y-72414286D01*
X67166667Y-72528571D01*
X67128572Y-72604762D01*
X67090477Y-72642857D01*
X67014286Y-72680952D01*
X66709524Y-72680952D01*
X67928572Y-73061905D02*
X67471429Y-73061905D01*
X67700000Y-73061905D02*
X67700000Y-72261905D01*
X67623810Y-72376190D01*
X67547619Y-72452381D01*
X67471429Y-72490476D01*
X62466667Y-67085714D02*
X62428572Y-67123810D01*
X62314286Y-67161905D01*
X62238096Y-67161905D01*
X62123810Y-67123810D01*
X62047619Y-67047619D01*
X62009524Y-66971429D01*
X61971429Y-66819048D01*
X61971429Y-66704762D01*
X62009524Y-66552381D01*
X62047619Y-66476190D01*
X62123810Y-66400000D01*
X62238096Y-66361905D01*
X62314286Y-66361905D01*
X62428572Y-66400000D01*
X62466667Y-66438095D01*
X63190477Y-66361905D02*
X62809524Y-66361905D01*
X62771429Y-66742857D01*
X62809524Y-66704762D01*
X62885715Y-66666667D01*
X63076191Y-66666667D01*
X63152381Y-66704762D01*
X63190477Y-66742857D01*
X63228572Y-66819048D01*
X63228572Y-67009524D01*
X63190477Y-67085714D01*
X63152381Y-67123810D01*
X63076191Y-67161905D01*
X62885715Y-67161905D01*
X62809524Y-67123810D01*
X62771429Y-67085714D01*
X59985714Y-88833333D02*
X60023810Y-88871428D01*
X60061905Y-88985714D01*
X60061905Y-89061904D01*
X60023810Y-89176190D01*
X59947619Y-89252381D01*
X59871429Y-89290476D01*
X59719048Y-89328571D01*
X59604762Y-89328571D01*
X59452381Y-89290476D01*
X59376190Y-89252381D01*
X59300000Y-89176190D01*
X59261905Y-89061904D01*
X59261905Y-88985714D01*
X59300000Y-88871428D01*
X59338095Y-88833333D01*
X59604762Y-88376190D02*
X59566667Y-88452381D01*
X59528571Y-88490476D01*
X59452381Y-88528571D01*
X59414286Y-88528571D01*
X59338095Y-88490476D01*
X59300000Y-88452381D01*
X59261905Y-88376190D01*
X59261905Y-88223809D01*
X59300000Y-88147619D01*
X59338095Y-88109523D01*
X59414286Y-88071428D01*
X59452381Y-88071428D01*
X59528571Y-88109523D01*
X59566667Y-88147619D01*
X59604762Y-88223809D01*
X59604762Y-88376190D01*
X59642857Y-88452381D01*
X59680952Y-88490476D01*
X59757143Y-88528571D01*
X59909524Y-88528571D01*
X59985714Y-88490476D01*
X60023810Y-88452381D01*
X60061905Y-88376190D01*
X60061905Y-88223809D01*
X60023810Y-88147619D01*
X59985714Y-88109523D01*
X59909524Y-88071428D01*
X59757143Y-88071428D01*
X59680952Y-88109523D01*
X59642857Y-88147619D01*
X59604762Y-88223809D01*
X53685714Y-87533333D02*
X53723810Y-87571428D01*
X53761905Y-87685714D01*
X53761905Y-87761904D01*
X53723810Y-87876190D01*
X53647619Y-87952381D01*
X53571429Y-87990476D01*
X53419048Y-88028571D01*
X53304762Y-88028571D01*
X53152381Y-87990476D01*
X53076190Y-87952381D01*
X53000000Y-87876190D01*
X52961905Y-87761904D01*
X52961905Y-87685714D01*
X53000000Y-87571428D01*
X53038095Y-87533333D01*
X53761905Y-87152381D02*
X53761905Y-87000000D01*
X53723810Y-86923809D01*
X53685714Y-86885714D01*
X53571429Y-86809523D01*
X53419048Y-86771428D01*
X53114286Y-86771428D01*
X53038095Y-86809523D01*
X53000000Y-86847619D01*
X52961905Y-86923809D01*
X52961905Y-87076190D01*
X53000000Y-87152381D01*
X53038095Y-87190476D01*
X53114286Y-87228571D01*
X53304762Y-87228571D01*
X53380952Y-87190476D01*
X53419048Y-87152381D01*
X53457143Y-87076190D01*
X53457143Y-86923809D01*
X53419048Y-86847619D01*
X53380952Y-86809523D01*
X53304762Y-86771428D01*
X80285714Y-52985714D02*
X80247619Y-53023810D01*
X80133333Y-53061905D01*
X80057143Y-53061905D01*
X79942857Y-53023810D01*
X79866666Y-52947619D01*
X79828571Y-52871429D01*
X79790476Y-52719048D01*
X79790476Y-52604762D01*
X79828571Y-52452381D01*
X79866666Y-52376190D01*
X79942857Y-52300000D01*
X80057143Y-52261905D01*
X80133333Y-52261905D01*
X80247619Y-52300000D01*
X80285714Y-52338095D01*
X81047619Y-53061905D02*
X80590476Y-53061905D01*
X80819047Y-53061905D02*
X80819047Y-52261905D01*
X80742857Y-52376190D01*
X80666666Y-52452381D01*
X80590476Y-52490476D01*
X81314286Y-52261905D02*
X81809524Y-52261905D01*
X81542857Y-52566667D01*
X81657143Y-52566667D01*
X81733333Y-52604762D01*
X81771429Y-52642857D01*
X81809524Y-52719048D01*
X81809524Y-52909524D01*
X81771429Y-52985714D01*
X81733333Y-53023810D01*
X81657143Y-53061905D01*
X81428571Y-53061905D01*
X81352381Y-53023810D01*
X81314286Y-52985714D01*
X54985714Y-52685714D02*
X54947619Y-52723810D01*
X54833333Y-52761905D01*
X54757143Y-52761905D01*
X54642857Y-52723810D01*
X54566666Y-52647619D01*
X54528571Y-52571429D01*
X54490476Y-52419048D01*
X54490476Y-52304762D01*
X54528571Y-52152381D01*
X54566666Y-52076190D01*
X54642857Y-52000000D01*
X54757143Y-51961905D01*
X54833333Y-51961905D01*
X54947619Y-52000000D01*
X54985714Y-52038095D01*
X55747619Y-52761905D02*
X55290476Y-52761905D01*
X55519047Y-52761905D02*
X55519047Y-51961905D01*
X55442857Y-52076190D01*
X55366666Y-52152381D01*
X55290476Y-52190476D01*
X56471429Y-51961905D02*
X56090476Y-51961905D01*
X56052381Y-52342857D01*
X56090476Y-52304762D01*
X56166667Y-52266667D01*
X56357143Y-52266667D01*
X56433333Y-52304762D01*
X56471429Y-52342857D01*
X56509524Y-52419048D01*
X56509524Y-52609524D01*
X56471429Y-52685714D01*
X56433333Y-52723810D01*
X56357143Y-52761905D01*
X56166667Y-52761905D01*
X56090476Y-52723810D01*
X56052381Y-52685714D01*
X83735714Y-88485714D02*
X83697619Y-88523810D01*
X83583333Y-88561905D01*
X83507143Y-88561905D01*
X83392857Y-88523810D01*
X83316666Y-88447619D01*
X83278571Y-88371429D01*
X83240476Y-88219048D01*
X83240476Y-88104762D01*
X83278571Y-87952381D01*
X83316666Y-87876190D01*
X83392857Y-87800000D01*
X83507143Y-87761905D01*
X83583333Y-87761905D01*
X83697619Y-87800000D01*
X83735714Y-87838095D01*
X84040476Y-87838095D02*
X84078571Y-87800000D01*
X84154762Y-87761905D01*
X84345238Y-87761905D01*
X84421428Y-87800000D01*
X84459524Y-87838095D01*
X84497619Y-87914286D01*
X84497619Y-87990476D01*
X84459524Y-88104762D01*
X84002381Y-88561905D01*
X84497619Y-88561905D01*
X84802381Y-87838095D02*
X84840476Y-87800000D01*
X84916667Y-87761905D01*
X85107143Y-87761905D01*
X85183333Y-87800000D01*
X85221429Y-87838095D01*
X85259524Y-87914286D01*
X85259524Y-87990476D01*
X85221429Y-88104762D01*
X84764286Y-88561905D01*
X85259524Y-88561905D01*
X89085714Y-91314286D02*
X89123810Y-91352381D01*
X89161905Y-91466667D01*
X89161905Y-91542857D01*
X89123810Y-91657143D01*
X89047619Y-91733334D01*
X88971429Y-91771429D01*
X88819048Y-91809524D01*
X88704762Y-91809524D01*
X88552381Y-91771429D01*
X88476190Y-91733334D01*
X88400000Y-91657143D01*
X88361905Y-91542857D01*
X88361905Y-91466667D01*
X88400000Y-91352381D01*
X88438095Y-91314286D01*
X88438095Y-91009524D02*
X88400000Y-90971429D01*
X88361905Y-90895238D01*
X88361905Y-90704762D01*
X88400000Y-90628572D01*
X88438095Y-90590476D01*
X88514286Y-90552381D01*
X88590476Y-90552381D01*
X88704762Y-90590476D01*
X89161905Y-91047619D01*
X89161905Y-90552381D01*
X88361905Y-90285714D02*
X88361905Y-89790476D01*
X88666667Y-90057143D01*
X88666667Y-89942857D01*
X88704762Y-89866667D01*
X88742857Y-89828571D01*
X88819048Y-89790476D01*
X89009524Y-89790476D01*
X89085714Y-89828571D01*
X89123810Y-89866667D01*
X89161905Y-89942857D01*
X89161905Y-90171429D01*
X89123810Y-90247619D01*
X89085714Y-90285714D01*
X32085714Y-79414286D02*
X32123810Y-79452381D01*
X32161905Y-79566667D01*
X32161905Y-79642857D01*
X32123810Y-79757143D01*
X32047619Y-79833334D01*
X31971429Y-79871429D01*
X31819048Y-79909524D01*
X31704762Y-79909524D01*
X31552381Y-79871429D01*
X31476190Y-79833334D01*
X31400000Y-79757143D01*
X31361905Y-79642857D01*
X31361905Y-79566667D01*
X31400000Y-79452381D01*
X31438095Y-79414286D01*
X31438095Y-79109524D02*
X31400000Y-79071429D01*
X31361905Y-78995238D01*
X31361905Y-78804762D01*
X31400000Y-78728572D01*
X31438095Y-78690476D01*
X31514286Y-78652381D01*
X31590476Y-78652381D01*
X31704762Y-78690476D01*
X32161905Y-79147619D01*
X32161905Y-78652381D01*
X31361905Y-77928571D02*
X31361905Y-78309524D01*
X31742857Y-78347619D01*
X31704762Y-78309524D01*
X31666667Y-78233333D01*
X31666667Y-78042857D01*
X31704762Y-77966667D01*
X31742857Y-77928571D01*
X31819048Y-77890476D01*
X32009524Y-77890476D01*
X32085714Y-77928571D01*
X32123810Y-77966667D01*
X32161905Y-78042857D01*
X32161905Y-78233333D01*
X32123810Y-78309524D01*
X32085714Y-78347619D01*
D11*
X86761905Y-95680952D02*
X85961905Y-95680952D01*
X86685714Y-94842857D02*
X86723810Y-94880952D01*
X86761905Y-94995238D01*
X86761905Y-95071428D01*
X86723810Y-95185714D01*
X86647619Y-95261905D01*
X86571429Y-95300000D01*
X86419048Y-95338095D01*
X86304762Y-95338095D01*
X86152381Y-95300000D01*
X86076190Y-95261905D01*
X86000000Y-95185714D01*
X85961905Y-95071428D01*
X85961905Y-94995238D01*
X86000000Y-94880952D01*
X86038095Y-94842857D01*
X85961905Y-94157143D02*
X85961905Y-94309524D01*
X86000000Y-94385714D01*
X86038095Y-94423809D01*
X86152381Y-94500000D01*
X86304762Y-94538095D01*
X86609524Y-94538095D01*
X86685714Y-94500000D01*
X86723810Y-94461905D01*
X86761905Y-94385714D01*
X86761905Y-94233333D01*
X86723810Y-94157143D01*
X86685714Y-94119047D01*
X86609524Y-94080952D01*
X86419048Y-94080952D01*
X86342857Y-94119047D01*
X86304762Y-94157143D01*
X86266667Y-94233333D01*
X86266667Y-94385714D01*
X86304762Y-94461905D01*
X86342857Y-94500000D01*
X86419048Y-94538095D01*
D13*
X84519048Y-84661905D02*
X84519048Y-83861905D01*
X85357143Y-84585714D02*
X85319048Y-84623810D01*
X85204762Y-84661905D01*
X85128572Y-84661905D01*
X85014286Y-84623810D01*
X84938095Y-84547619D01*
X84900000Y-84471429D01*
X84861905Y-84319048D01*
X84861905Y-84204762D01*
X84900000Y-84052381D01*
X84938095Y-83976190D01*
X85014286Y-83900000D01*
X85128572Y-83861905D01*
X85204762Y-83861905D01*
X85319048Y-83900000D01*
X85357143Y-83938095D01*
X85623810Y-83861905D02*
X86157143Y-83861905D01*
X85814286Y-84661905D01*
X45561905Y-53714286D02*
X45180952Y-53980953D01*
X45561905Y-54171429D02*
X44761905Y-54171429D01*
X44761905Y-53866667D01*
X44800000Y-53790476D01*
X44838095Y-53752381D01*
X44914286Y-53714286D01*
X45028571Y-53714286D01*
X45104762Y-53752381D01*
X45142857Y-53790476D01*
X45180952Y-53866667D01*
X45180952Y-54171429D01*
X45561905Y-52952381D02*
X45561905Y-53409524D01*
X45561905Y-53180953D02*
X44761905Y-53180953D01*
X44876190Y-53257143D01*
X44952381Y-53333334D01*
X44990476Y-53409524D01*
X45104762Y-52495238D02*
X45066667Y-52571429D01*
X45028571Y-52609524D01*
X44952381Y-52647619D01*
X44914286Y-52647619D01*
X44838095Y-52609524D01*
X44800000Y-52571429D01*
X44761905Y-52495238D01*
X44761905Y-52342857D01*
X44800000Y-52266667D01*
X44838095Y-52228571D01*
X44914286Y-52190476D01*
X44952381Y-52190476D01*
X45028571Y-52228571D01*
X45066667Y-52266667D01*
X45104762Y-52342857D01*
X45104762Y-52495238D01*
X45142857Y-52571429D01*
X45180952Y-52609524D01*
X45257143Y-52647619D01*
X45409524Y-52647619D01*
X45485714Y-52609524D01*
X45523810Y-52571429D01*
X45561905Y-52495238D01*
X45561905Y-52342857D01*
X45523810Y-52266667D01*
X45485714Y-52228571D01*
X45409524Y-52190476D01*
X45257143Y-52190476D01*
X45180952Y-52228571D01*
X45142857Y-52266667D01*
X45104762Y-52342857D01*
X28185714Y-63361905D02*
X27919047Y-62980952D01*
X27728571Y-63361905D02*
X27728571Y-62561905D01*
X28033333Y-62561905D01*
X28109524Y-62600000D01*
X28147619Y-62638095D01*
X28185714Y-62714286D01*
X28185714Y-62828571D01*
X28147619Y-62904762D01*
X28109524Y-62942857D01*
X28033333Y-62980952D01*
X27728571Y-62980952D01*
X28947619Y-63361905D02*
X28490476Y-63361905D01*
X28719047Y-63361905D02*
X28719047Y-62561905D01*
X28642857Y-62676190D01*
X28566666Y-62752381D01*
X28490476Y-62790476D01*
X29328571Y-63361905D02*
X29480952Y-63361905D01*
X29557143Y-63323810D01*
X29595238Y-63285714D01*
X29671429Y-63171429D01*
X29709524Y-63019048D01*
X29709524Y-62714286D01*
X29671429Y-62638095D01*
X29633333Y-62600000D01*
X29557143Y-62561905D01*
X29404762Y-62561905D01*
X29328571Y-62600000D01*
X29290476Y-62638095D01*
X29252381Y-62714286D01*
X29252381Y-62904762D01*
X29290476Y-62980952D01*
X29328571Y-63019048D01*
X29404762Y-63057143D01*
X29557143Y-63057143D01*
X29633333Y-63019048D01*
X29671429Y-62980952D01*
X29709524Y-62904762D01*
X67885714Y-52761905D02*
X67619047Y-52380952D01*
X67428571Y-52761905D02*
X67428571Y-51961905D01*
X67733333Y-51961905D01*
X67809524Y-52000000D01*
X67847619Y-52038095D01*
X67885714Y-52114286D01*
X67885714Y-52228571D01*
X67847619Y-52304762D01*
X67809524Y-52342857D01*
X67733333Y-52380952D01*
X67428571Y-52380952D01*
X68190476Y-52038095D02*
X68228571Y-52000000D01*
X68304762Y-51961905D01*
X68495238Y-51961905D01*
X68571428Y-52000000D01*
X68609524Y-52038095D01*
X68647619Y-52114286D01*
X68647619Y-52190476D01*
X68609524Y-52304762D01*
X68152381Y-52761905D01*
X68647619Y-52761905D01*
X69142857Y-51961905D02*
X69219048Y-51961905D01*
X69295238Y-52000000D01*
X69333333Y-52038095D01*
X69371429Y-52114286D01*
X69409524Y-52266667D01*
X69409524Y-52457143D01*
X69371429Y-52609524D01*
X69333333Y-52685714D01*
X69295238Y-52723810D01*
X69219048Y-52761905D01*
X69142857Y-52761905D01*
X69066667Y-52723810D01*
X69028571Y-52685714D01*
X68990476Y-52609524D01*
X68952381Y-52457143D01*
X68952381Y-52266667D01*
X68990476Y-52114286D01*
X69028571Y-52038095D01*
X69066667Y-52000000D01*
X69142857Y-51961905D01*
X79711905Y-88264286D02*
X79330952Y-88530953D01*
X79711905Y-88721429D02*
X78911905Y-88721429D01*
X78911905Y-88416667D01*
X78950000Y-88340476D01*
X78988095Y-88302381D01*
X79064286Y-88264286D01*
X79178571Y-88264286D01*
X79254762Y-88302381D01*
X79292857Y-88340476D01*
X79330952Y-88416667D01*
X79330952Y-88721429D01*
X78988095Y-87959524D02*
X78950000Y-87921429D01*
X78911905Y-87845238D01*
X78911905Y-87654762D01*
X78950000Y-87578572D01*
X78988095Y-87540476D01*
X79064286Y-87502381D01*
X79140476Y-87502381D01*
X79254762Y-87540476D01*
X79711905Y-87997619D01*
X79711905Y-87502381D01*
X79711905Y-86740476D02*
X79711905Y-87197619D01*
X79711905Y-86969048D02*
X78911905Y-86969048D01*
X79026190Y-87045238D01*
X79102381Y-87121429D01*
X79140476Y-87197619D01*
X32085714Y-75461905D02*
X31819047Y-75080952D01*
X31628571Y-75461905D02*
X31628571Y-74661905D01*
X31933333Y-74661905D01*
X32009524Y-74700000D01*
X32047619Y-74738095D01*
X32085714Y-74814286D01*
X32085714Y-74928571D01*
X32047619Y-75004762D01*
X32009524Y-75042857D01*
X31933333Y-75080952D01*
X31628571Y-75080952D01*
X32390476Y-74738095D02*
X32428571Y-74700000D01*
X32504762Y-74661905D01*
X32695238Y-74661905D01*
X32771428Y-74700000D01*
X32809524Y-74738095D01*
X32847619Y-74814286D01*
X32847619Y-74890476D01*
X32809524Y-75004762D01*
X32352381Y-75461905D01*
X32847619Y-75461905D01*
X33152381Y-74738095D02*
X33190476Y-74700000D01*
X33266667Y-74661905D01*
X33457143Y-74661905D01*
X33533333Y-74700000D01*
X33571429Y-74738095D01*
X33609524Y-74814286D01*
X33609524Y-74890476D01*
X33571429Y-75004762D01*
X33114286Y-75461905D01*
X33609524Y-75461905D01*
X23861905Y-75614286D02*
X23480952Y-75880953D01*
X23861905Y-76071429D02*
X23061905Y-76071429D01*
X23061905Y-75766667D01*
X23100000Y-75690476D01*
X23138095Y-75652381D01*
X23214286Y-75614286D01*
X23328571Y-75614286D01*
X23404762Y-75652381D01*
X23442857Y-75690476D01*
X23480952Y-75766667D01*
X23480952Y-76071429D01*
X23138095Y-75309524D02*
X23100000Y-75271429D01*
X23061905Y-75195238D01*
X23061905Y-75004762D01*
X23100000Y-74928572D01*
X23138095Y-74890476D01*
X23214286Y-74852381D01*
X23290476Y-74852381D01*
X23404762Y-74890476D01*
X23861905Y-75347619D01*
X23861905Y-74852381D01*
X23061905Y-74585714D02*
X23061905Y-74090476D01*
X23366667Y-74357143D01*
X23366667Y-74242857D01*
X23404762Y-74166667D01*
X23442857Y-74128571D01*
X23519048Y-74090476D01*
X23709524Y-74090476D01*
X23785714Y-74128571D01*
X23823810Y-74166667D01*
X23861905Y-74242857D01*
X23861905Y-74471429D01*
X23823810Y-74547619D01*
X23785714Y-74585714D01*
X37285714Y-83861905D02*
X37019047Y-83480952D01*
X36828571Y-83861905D02*
X36828571Y-83061905D01*
X37133333Y-83061905D01*
X37209524Y-83100000D01*
X37247619Y-83138095D01*
X37285714Y-83214286D01*
X37285714Y-83328571D01*
X37247619Y-83404762D01*
X37209524Y-83442857D01*
X37133333Y-83480952D01*
X36828571Y-83480952D01*
X37590476Y-83138095D02*
X37628571Y-83100000D01*
X37704762Y-83061905D01*
X37895238Y-83061905D01*
X37971428Y-83100000D01*
X38009524Y-83138095D01*
X38047619Y-83214286D01*
X38047619Y-83290476D01*
X38009524Y-83404762D01*
X37552381Y-83861905D01*
X38047619Y-83861905D01*
X38771429Y-83061905D02*
X38390476Y-83061905D01*
X38352381Y-83442857D01*
X38390476Y-83404762D01*
X38466667Y-83366667D01*
X38657143Y-83366667D01*
X38733333Y-83404762D01*
X38771429Y-83442857D01*
X38809524Y-83519048D01*
X38809524Y-83709524D01*
X38771429Y-83785714D01*
X38733333Y-83823810D01*
X38657143Y-83861905D01*
X38466667Y-83861905D01*
X38390476Y-83823810D01*
X38352381Y-83785714D01*
X30261905Y-83414286D02*
X29880952Y-83680953D01*
X30261905Y-83871429D02*
X29461905Y-83871429D01*
X29461905Y-83566667D01*
X29500000Y-83490476D01*
X29538095Y-83452381D01*
X29614286Y-83414286D01*
X29728571Y-83414286D01*
X29804762Y-83452381D01*
X29842857Y-83490476D01*
X29880952Y-83566667D01*
X29880952Y-83871429D01*
X29538095Y-83109524D02*
X29500000Y-83071429D01*
X29461905Y-82995238D01*
X29461905Y-82804762D01*
X29500000Y-82728572D01*
X29538095Y-82690476D01*
X29614286Y-82652381D01*
X29690476Y-82652381D01*
X29804762Y-82690476D01*
X30261905Y-83147619D01*
X30261905Y-82652381D01*
X29461905Y-81966667D02*
X29461905Y-82119048D01*
X29500000Y-82195238D01*
X29538095Y-82233333D01*
X29652381Y-82309524D01*
X29804762Y-82347619D01*
X30109524Y-82347619D01*
X30185714Y-82309524D01*
X30223810Y-82271429D01*
X30261905Y-82195238D01*
X30261905Y-82042857D01*
X30223810Y-81966667D01*
X30185714Y-81928571D01*
X30109524Y-81890476D01*
X29919048Y-81890476D01*
X29842857Y-81928571D01*
X29804762Y-81966667D01*
X29766667Y-82042857D01*
X29766667Y-82195238D01*
X29804762Y-82271429D01*
X29842857Y-82309524D01*
X29919048Y-82347619D01*
X42761905Y-61680952D02*
X41961905Y-61680952D01*
X42685714Y-60842857D02*
X42723810Y-60880952D01*
X42761905Y-60995238D01*
X42761905Y-61071428D01*
X42723810Y-61185714D01*
X42647619Y-61261905D01*
X42571429Y-61300000D01*
X42419048Y-61338095D01*
X42304762Y-61338095D01*
X42152381Y-61300000D01*
X42076190Y-61261905D01*
X42000000Y-61185714D01*
X41961905Y-61071428D01*
X41961905Y-60995238D01*
X42000000Y-60880952D01*
X42038095Y-60842857D01*
X42038095Y-60538095D02*
X42000000Y-60500000D01*
X41961905Y-60423809D01*
X41961905Y-60233333D01*
X42000000Y-60157143D01*
X42038095Y-60119047D01*
X42114286Y-60080952D01*
X42190476Y-60080952D01*
X42304762Y-60119047D01*
X42761905Y-60576190D01*
X42761905Y-60080952D01*
X113415714Y-121133333D02*
X113453810Y-121171428D01*
X113491905Y-121285714D01*
X113491905Y-121361904D01*
X113453810Y-121476190D01*
X113377619Y-121552381D01*
X113301429Y-121590476D01*
X113149048Y-121628571D01*
X113034762Y-121628571D01*
X112882381Y-121590476D01*
X112806190Y-121552381D01*
X112730000Y-121476190D01*
X112691905Y-121361904D01*
X112691905Y-121285714D01*
X112730000Y-121171428D01*
X112768095Y-121133333D01*
X112691905Y-120866666D02*
X112691905Y-120333333D01*
X113491905Y-120676190D01*
X107366667Y-120261905D02*
X106985714Y-120261905D01*
X106985714Y-119461905D01*
X108052381Y-120261905D02*
X107595238Y-120261905D01*
X107823809Y-120261905D02*
X107823809Y-119461905D01*
X107747619Y-119576190D01*
X107671428Y-119652381D01*
X107595238Y-119690476D01*
X105838095Y-60761905D02*
X105838095Y-59961905D01*
X106676190Y-60685714D02*
X106638095Y-60723810D01*
X106523809Y-60761905D01*
X106447619Y-60761905D01*
X106333333Y-60723810D01*
X106257142Y-60647619D01*
X106219047Y-60571429D01*
X106180952Y-60419048D01*
X106180952Y-60304762D01*
X106219047Y-60152381D01*
X106257142Y-60076190D01*
X106333333Y-60000000D01*
X106447619Y-59961905D01*
X106523809Y-59961905D01*
X106638095Y-60000000D01*
X106676190Y-60038095D01*
X107438095Y-60761905D02*
X106980952Y-60761905D01*
X107209523Y-60761905D02*
X107209523Y-59961905D01*
X107133333Y-60076190D01*
X107057142Y-60152381D01*
X106980952Y-60190476D01*
X107933333Y-59961905D02*
X108009524Y-59961905D01*
X108085714Y-60000000D01*
X108123809Y-60038095D01*
X108161905Y-60114286D01*
X108200000Y-60266667D01*
X108200000Y-60457143D01*
X108161905Y-60609524D01*
X108123809Y-60685714D01*
X108085714Y-60723810D01*
X108009524Y-60761905D01*
X107933333Y-60761905D01*
X107857143Y-60723810D01*
X107819047Y-60685714D01*
X107780952Y-60609524D01*
X107742857Y-60457143D01*
X107742857Y-60266667D01*
X107780952Y-60114286D01*
X107819047Y-60038095D01*
X107857143Y-60000000D01*
X107933333Y-59961905D01*
X104961905Y-67114286D02*
X104580952Y-67380953D01*
X104961905Y-67571429D02*
X104161905Y-67571429D01*
X104161905Y-67266667D01*
X104200000Y-67190476D01*
X104238095Y-67152381D01*
X104314286Y-67114286D01*
X104428571Y-67114286D01*
X104504762Y-67152381D01*
X104542857Y-67190476D01*
X104580952Y-67266667D01*
X104580952Y-67571429D01*
X104238095Y-66809524D02*
X104200000Y-66771429D01*
X104161905Y-66695238D01*
X104161905Y-66504762D01*
X104200000Y-66428572D01*
X104238095Y-66390476D01*
X104314286Y-66352381D01*
X104390476Y-66352381D01*
X104504762Y-66390476D01*
X104961905Y-66847619D01*
X104961905Y-66352381D01*
X104504762Y-65895238D02*
X104466667Y-65971429D01*
X104428571Y-66009524D01*
X104352381Y-66047619D01*
X104314286Y-66047619D01*
X104238095Y-66009524D01*
X104200000Y-65971429D01*
X104161905Y-65895238D01*
X104161905Y-65742857D01*
X104200000Y-65666667D01*
X104238095Y-65628571D01*
X104314286Y-65590476D01*
X104352381Y-65590476D01*
X104428571Y-65628571D01*
X104466667Y-65666667D01*
X104504762Y-65742857D01*
X104504762Y-65895238D01*
X104542857Y-65971429D01*
X104580952Y-66009524D01*
X104657143Y-66047619D01*
X104809524Y-66047619D01*
X104885714Y-66009524D01*
X104923810Y-65971429D01*
X104961905Y-65895238D01*
X104961905Y-65742857D01*
X104923810Y-65666667D01*
X104885714Y-65628571D01*
X104809524Y-65590476D01*
X104657143Y-65590476D01*
X104580952Y-65628571D01*
X104542857Y-65666667D01*
X104504762Y-65742857D01*
X111696249Y-67534165D02*
X111315296Y-67800832D01*
X111696249Y-67991308D02*
X110896249Y-67991308D01*
X110896249Y-67686546D01*
X110934344Y-67610355D01*
X110972439Y-67572260D01*
X111048630Y-67534165D01*
X111162915Y-67534165D01*
X111239106Y-67572260D01*
X111277201Y-67610355D01*
X111315296Y-67686546D01*
X111315296Y-67991308D01*
X110972439Y-67229403D02*
X110934344Y-67191308D01*
X110896249Y-67115117D01*
X110896249Y-66924641D01*
X110934344Y-66848451D01*
X110972439Y-66810355D01*
X111048630Y-66772260D01*
X111124820Y-66772260D01*
X111239106Y-66810355D01*
X111696249Y-67267498D01*
X111696249Y-66772260D01*
X110896249Y-66505593D02*
X110896249Y-65972260D01*
X111696249Y-66315117D01*
X41735714Y-135214286D02*
X41773810Y-135252381D01*
X41811905Y-135366667D01*
X41811905Y-135442857D01*
X41773810Y-135557143D01*
X41697619Y-135633334D01*
X41621429Y-135671429D01*
X41469048Y-135709524D01*
X41354762Y-135709524D01*
X41202381Y-135671429D01*
X41126190Y-135633334D01*
X41050000Y-135557143D01*
X41011905Y-135442857D01*
X41011905Y-135366667D01*
X41050000Y-135252381D01*
X41088095Y-135214286D01*
X41088095Y-134909524D02*
X41050000Y-134871429D01*
X41011905Y-134795238D01*
X41011905Y-134604762D01*
X41050000Y-134528572D01*
X41088095Y-134490476D01*
X41164286Y-134452381D01*
X41240476Y-134452381D01*
X41354762Y-134490476D01*
X41811905Y-134947619D01*
X41811905Y-134452381D01*
X41811905Y-133690476D02*
X41811905Y-134147619D01*
X41811905Y-133919048D02*
X41011905Y-133919048D01*
X41126190Y-133995238D01*
X41202381Y-134071429D01*
X41240476Y-134147619D01*
X47035714Y-134964286D02*
X47073810Y-135002381D01*
X47111905Y-135116667D01*
X47111905Y-135192857D01*
X47073810Y-135307143D01*
X46997619Y-135383334D01*
X46921429Y-135421429D01*
X46769048Y-135459524D01*
X46654762Y-135459524D01*
X46502381Y-135421429D01*
X46426190Y-135383334D01*
X46350000Y-135307143D01*
X46311905Y-135192857D01*
X46311905Y-135116667D01*
X46350000Y-135002381D01*
X46388095Y-134964286D01*
X46388095Y-134659524D02*
X46350000Y-134621429D01*
X46311905Y-134545238D01*
X46311905Y-134354762D01*
X46350000Y-134278572D01*
X46388095Y-134240476D01*
X46464286Y-134202381D01*
X46540476Y-134202381D01*
X46654762Y-134240476D01*
X47111905Y-134697619D01*
X47111905Y-134202381D01*
X46311905Y-133935714D02*
X46311905Y-133402381D01*
X47111905Y-133745238D01*
X34347619Y-121642857D02*
X34614286Y-121642857D01*
X34728572Y-122061905D02*
X34347619Y-122061905D01*
X34347619Y-121261905D01*
X34728572Y-121261905D01*
X35490477Y-122061905D02*
X35033334Y-122061905D01*
X35261905Y-122061905D02*
X35261905Y-121261905D01*
X35185715Y-121376190D01*
X35109524Y-121452381D01*
X35033334Y-121490476D01*
X26692857Y-129102381D02*
X26692857Y-128835714D01*
X27111905Y-128721428D02*
X27111905Y-129102381D01*
X26311905Y-129102381D01*
X26311905Y-128721428D01*
X26388095Y-128416666D02*
X26350000Y-128378571D01*
X26311905Y-128302380D01*
X26311905Y-128111904D01*
X26350000Y-128035714D01*
X26388095Y-127997618D01*
X26464286Y-127959523D01*
X26540476Y-127959523D01*
X26654762Y-127997618D01*
X27111905Y-128454761D01*
X27111905Y-127959523D01*
X58361905Y-120614286D02*
X57980952Y-120880953D01*
X58361905Y-121071429D02*
X57561905Y-121071429D01*
X57561905Y-120766667D01*
X57600000Y-120690476D01*
X57638095Y-120652381D01*
X57714286Y-120614286D01*
X57828571Y-120614286D01*
X57904762Y-120652381D01*
X57942857Y-120690476D01*
X57980952Y-120766667D01*
X57980952Y-121071429D01*
X57638095Y-120309524D02*
X57600000Y-120271429D01*
X57561905Y-120195238D01*
X57561905Y-120004762D01*
X57600000Y-119928572D01*
X57638095Y-119890476D01*
X57714286Y-119852381D01*
X57790476Y-119852381D01*
X57904762Y-119890476D01*
X58361905Y-120347619D01*
X58361905Y-119852381D01*
X58361905Y-119471429D02*
X58361905Y-119319048D01*
X58323810Y-119242857D01*
X58285714Y-119204762D01*
X58171429Y-119128571D01*
X58019048Y-119090476D01*
X57714286Y-119090476D01*
X57638095Y-119128571D01*
X57600000Y-119166667D01*
X57561905Y-119242857D01*
X57561905Y-119395238D01*
X57600000Y-119471429D01*
X57638095Y-119509524D01*
X57714286Y-119547619D01*
X57904762Y-119547619D01*
X57980952Y-119509524D01*
X58019048Y-119471429D01*
X58057143Y-119395238D01*
X58057143Y-119242857D01*
X58019048Y-119166667D01*
X57980952Y-119128571D01*
X57904762Y-119090476D01*
X55761905Y-120514286D02*
X55380952Y-120780953D01*
X55761905Y-120971429D02*
X54961905Y-120971429D01*
X54961905Y-120666667D01*
X55000000Y-120590476D01*
X55038095Y-120552381D01*
X55114286Y-120514286D01*
X55228571Y-120514286D01*
X55304762Y-120552381D01*
X55342857Y-120590476D01*
X55380952Y-120666667D01*
X55380952Y-120971429D01*
X54961905Y-120247619D02*
X54961905Y-119752381D01*
X55266667Y-120019048D01*
X55266667Y-119904762D01*
X55304762Y-119828572D01*
X55342857Y-119790476D01*
X55419048Y-119752381D01*
X55609524Y-119752381D01*
X55685714Y-119790476D01*
X55723810Y-119828572D01*
X55761905Y-119904762D01*
X55761905Y-120133334D01*
X55723810Y-120209524D01*
X55685714Y-120247619D01*
X54961905Y-119257143D02*
X54961905Y-119180952D01*
X55000000Y-119104762D01*
X55038095Y-119066667D01*
X55114286Y-119028571D01*
X55266667Y-118990476D01*
X55457143Y-118990476D01*
X55609524Y-119028571D01*
X55685714Y-119066667D01*
X55723810Y-119104762D01*
X55761905Y-119180952D01*
X55761905Y-119257143D01*
X55723810Y-119333333D01*
X55685714Y-119371429D01*
X55609524Y-119409524D01*
X55457143Y-119447619D01*
X55266667Y-119447619D01*
X55114286Y-119409524D01*
X55038095Y-119371429D01*
X55000000Y-119333333D01*
X54961905Y-119257143D01*
X53061905Y-120414286D02*
X52680952Y-120680953D01*
X53061905Y-120871429D02*
X52261905Y-120871429D01*
X52261905Y-120566667D01*
X52300000Y-120490476D01*
X52338095Y-120452381D01*
X52414286Y-120414286D01*
X52528571Y-120414286D01*
X52604762Y-120452381D01*
X52642857Y-120490476D01*
X52680952Y-120566667D01*
X52680952Y-120871429D01*
X52261905Y-120147619D02*
X52261905Y-119652381D01*
X52566667Y-119919048D01*
X52566667Y-119804762D01*
X52604762Y-119728572D01*
X52642857Y-119690476D01*
X52719048Y-119652381D01*
X52909524Y-119652381D01*
X52985714Y-119690476D01*
X53023810Y-119728572D01*
X53061905Y-119804762D01*
X53061905Y-120033334D01*
X53023810Y-120109524D01*
X52985714Y-120147619D01*
X53061905Y-118890476D02*
X53061905Y-119347619D01*
X53061905Y-119119048D02*
X52261905Y-119119048D01*
X52376190Y-119195238D01*
X52452381Y-119271429D01*
X52490476Y-119347619D01*
X47211905Y-127714286D02*
X46830952Y-127980953D01*
X47211905Y-128171429D02*
X46411905Y-128171429D01*
X46411905Y-127866667D01*
X46450000Y-127790476D01*
X46488095Y-127752381D01*
X46564286Y-127714286D01*
X46678571Y-127714286D01*
X46754762Y-127752381D01*
X46792857Y-127790476D01*
X46830952Y-127866667D01*
X46830952Y-128171429D01*
X46411905Y-127447619D02*
X46411905Y-126952381D01*
X46716667Y-127219048D01*
X46716667Y-127104762D01*
X46754762Y-127028572D01*
X46792857Y-126990476D01*
X46869048Y-126952381D01*
X47059524Y-126952381D01*
X47135714Y-126990476D01*
X47173810Y-127028572D01*
X47211905Y-127104762D01*
X47211905Y-127333334D01*
X47173810Y-127409524D01*
X47135714Y-127447619D01*
X46488095Y-126647619D02*
X46450000Y-126609524D01*
X46411905Y-126533333D01*
X46411905Y-126342857D01*
X46450000Y-126266667D01*
X46488095Y-126228571D01*
X46564286Y-126190476D01*
X46640476Y-126190476D01*
X46754762Y-126228571D01*
X47211905Y-126685714D01*
X47211905Y-126190476D01*
X41611905Y-127712506D02*
X41230952Y-127979173D01*
X41611905Y-128169649D02*
X40811905Y-128169649D01*
X40811905Y-127864887D01*
X40850000Y-127788696D01*
X40888095Y-127750601D01*
X40964286Y-127712506D01*
X41078571Y-127712506D01*
X41154762Y-127750601D01*
X41192857Y-127788696D01*
X41230952Y-127864887D01*
X41230952Y-128169649D01*
X40811905Y-127445839D02*
X40811905Y-126950601D01*
X41116667Y-127217268D01*
X41116667Y-127102982D01*
X41154762Y-127026792D01*
X41192857Y-126988696D01*
X41269048Y-126950601D01*
X41459524Y-126950601D01*
X41535714Y-126988696D01*
X41573810Y-127026792D01*
X41611905Y-127102982D01*
X41611905Y-127331554D01*
X41573810Y-127407744D01*
X41535714Y-127445839D01*
X40811905Y-126683934D02*
X40811905Y-126188696D01*
X41116667Y-126455363D01*
X41116667Y-126341077D01*
X41154762Y-126264887D01*
X41192857Y-126226791D01*
X41269048Y-126188696D01*
X41459524Y-126188696D01*
X41535714Y-126226791D01*
X41573810Y-126264887D01*
X41611905Y-126341077D01*
X41611905Y-126569649D01*
X41573810Y-126645839D01*
X41535714Y-126683934D01*
X44585714Y-65214286D02*
X44623810Y-65252381D01*
X44661905Y-65366667D01*
X44661905Y-65442857D01*
X44623810Y-65557143D01*
X44547619Y-65633334D01*
X44471429Y-65671429D01*
X44319048Y-65709524D01*
X44204762Y-65709524D01*
X44052381Y-65671429D01*
X43976190Y-65633334D01*
X43900000Y-65557143D01*
X43861905Y-65442857D01*
X43861905Y-65366667D01*
X43900000Y-65252381D01*
X43938095Y-65214286D01*
X44661905Y-64452381D02*
X44661905Y-64909524D01*
X44661905Y-64680953D02*
X43861905Y-64680953D01*
X43976190Y-64757143D01*
X44052381Y-64833334D01*
X44090476Y-64909524D01*
X44128571Y-63766667D02*
X44661905Y-63766667D01*
X43823810Y-63957143D02*
X44395238Y-64147619D01*
X44395238Y-63652381D01*
X70733334Y-109542857D02*
X70466667Y-109542857D01*
X70466667Y-109961905D02*
X70466667Y-109161905D01*
X70847620Y-109161905D01*
X71571429Y-109961905D02*
X71114286Y-109961905D01*
X71342857Y-109961905D02*
X71342857Y-109161905D01*
X71266667Y-109276190D01*
X71190476Y-109352381D01*
X71114286Y-109390476D01*
X103385714Y-131014286D02*
X103423810Y-131052381D01*
X103461905Y-131166667D01*
X103461905Y-131242857D01*
X103423810Y-131357143D01*
X103347619Y-131433334D01*
X103271429Y-131471429D01*
X103119048Y-131509524D01*
X103004762Y-131509524D01*
X102852381Y-131471429D01*
X102776190Y-131433334D01*
X102700000Y-131357143D01*
X102661905Y-131242857D01*
X102661905Y-131166667D01*
X102700000Y-131052381D01*
X102738095Y-131014286D01*
X102738095Y-130709524D02*
X102700000Y-130671429D01*
X102661905Y-130595238D01*
X102661905Y-130404762D01*
X102700000Y-130328572D01*
X102738095Y-130290476D01*
X102814286Y-130252381D01*
X102890476Y-130252381D01*
X103004762Y-130290476D01*
X103461905Y-130747619D01*
X103461905Y-130252381D01*
X103004762Y-129795238D02*
X102966667Y-129871429D01*
X102928571Y-129909524D01*
X102852381Y-129947619D01*
X102814286Y-129947619D01*
X102738095Y-129909524D01*
X102700000Y-129871429D01*
X102661905Y-129795238D01*
X102661905Y-129642857D01*
X102700000Y-129566667D01*
X102738095Y-129528571D01*
X102814286Y-129490476D01*
X102852381Y-129490476D01*
X102928571Y-129528571D01*
X102966667Y-129566667D01*
X103004762Y-129642857D01*
X103004762Y-129795238D01*
X103042857Y-129871429D01*
X103080952Y-129909524D01*
X103157143Y-129947619D01*
X103309524Y-129947619D01*
X103385714Y-129909524D01*
X103423810Y-129871429D01*
X103461905Y-129795238D01*
X103461905Y-129642857D01*
X103423810Y-129566667D01*
X103385714Y-129528571D01*
X103309524Y-129490476D01*
X103157143Y-129490476D01*
X103080952Y-129528571D01*
X103042857Y-129566667D01*
X103004762Y-129642857D01*
X64885714Y-113914286D02*
X64923810Y-113952381D01*
X64961905Y-114066667D01*
X64961905Y-114142857D01*
X64923810Y-114257143D01*
X64847619Y-114333334D01*
X64771429Y-114371429D01*
X64619048Y-114409524D01*
X64504762Y-114409524D01*
X64352381Y-114371429D01*
X64276190Y-114333334D01*
X64200000Y-114257143D01*
X64161905Y-114142857D01*
X64161905Y-114066667D01*
X64200000Y-113952381D01*
X64238095Y-113914286D01*
X64238095Y-113609524D02*
X64200000Y-113571429D01*
X64161905Y-113495238D01*
X64161905Y-113304762D01*
X64200000Y-113228572D01*
X64238095Y-113190476D01*
X64314286Y-113152381D01*
X64390476Y-113152381D01*
X64504762Y-113190476D01*
X64961905Y-113647619D01*
X64961905Y-113152381D01*
X64961905Y-112771429D02*
X64961905Y-112619048D01*
X64923810Y-112542857D01*
X64885714Y-112504762D01*
X64771429Y-112428571D01*
X64619048Y-112390476D01*
X64314286Y-112390476D01*
X64238095Y-112428571D01*
X64200000Y-112466667D01*
X64161905Y-112542857D01*
X64161905Y-112695238D01*
X64200000Y-112771429D01*
X64238095Y-112809524D01*
X64314286Y-112847619D01*
X64504762Y-112847619D01*
X64580952Y-112809524D01*
X64619048Y-112771429D01*
X64657143Y-112695238D01*
X64657143Y-112542857D01*
X64619048Y-112466667D01*
X64580952Y-112428571D01*
X64504762Y-112390476D01*
X45759524Y-57461905D02*
X45759524Y-56661905D01*
X45950000Y-56661905D01*
X46064286Y-56700000D01*
X46140477Y-56776190D01*
X46178572Y-56852381D01*
X46216667Y-57004762D01*
X46216667Y-57119048D01*
X46178572Y-57271429D01*
X46140477Y-57347619D01*
X46064286Y-57423810D01*
X45950000Y-57461905D01*
X45759524Y-57461905D01*
X46940477Y-56661905D02*
X46559524Y-56661905D01*
X46521429Y-57042857D01*
X46559524Y-57004762D01*
X46635715Y-56966667D01*
X46826191Y-56966667D01*
X46902381Y-57004762D01*
X46940477Y-57042857D01*
X46978572Y-57119048D01*
X46978572Y-57309524D01*
X46940477Y-57385714D01*
X46902381Y-57423810D01*
X46826191Y-57461905D01*
X46635715Y-57461905D01*
X46559524Y-57423810D01*
X46521429Y-57385714D01*
X45709524Y-59161905D02*
X45709524Y-58361905D01*
X45900000Y-58361905D01*
X46014286Y-58400000D01*
X46090477Y-58476190D01*
X46128572Y-58552381D01*
X46166667Y-58704762D01*
X46166667Y-58819048D01*
X46128572Y-58971429D01*
X46090477Y-59047619D01*
X46014286Y-59123810D01*
X45900000Y-59161905D01*
X45709524Y-59161905D01*
X46852381Y-58628571D02*
X46852381Y-59161905D01*
X46661905Y-58323810D02*
X46471429Y-58895238D01*
X46966667Y-58895238D01*
X22509524Y-80361905D02*
X22509524Y-79561905D01*
X22700000Y-79561905D01*
X22814286Y-79600000D01*
X22890477Y-79676190D01*
X22928572Y-79752381D01*
X22966667Y-79904762D01*
X22966667Y-80019048D01*
X22928572Y-80171429D01*
X22890477Y-80247619D01*
X22814286Y-80323810D01*
X22700000Y-80361905D01*
X22509524Y-80361905D01*
X23233334Y-79561905D02*
X23728572Y-79561905D01*
X23461905Y-79866667D01*
X23576191Y-79866667D01*
X23652381Y-79904762D01*
X23690477Y-79942857D01*
X23728572Y-80019048D01*
X23728572Y-80209524D01*
X23690477Y-80285714D01*
X23652381Y-80323810D01*
X23576191Y-80361905D01*
X23347619Y-80361905D01*
X23271429Y-80323810D01*
X23233334Y-80285714D01*
X22609524Y-77861905D02*
X22609524Y-77061905D01*
X22800000Y-77061905D01*
X22914286Y-77100000D01*
X22990477Y-77176190D01*
X23028572Y-77252381D01*
X23066667Y-77404762D01*
X23066667Y-77519048D01*
X23028572Y-77671429D01*
X22990477Y-77747619D01*
X22914286Y-77823810D01*
X22800000Y-77861905D01*
X22609524Y-77861905D01*
X23447619Y-77861905D02*
X23600000Y-77861905D01*
X23676191Y-77823810D01*
X23714286Y-77785714D01*
X23790477Y-77671429D01*
X23828572Y-77519048D01*
X23828572Y-77214286D01*
X23790477Y-77138095D01*
X23752381Y-77100000D01*
X23676191Y-77061905D01*
X23523810Y-77061905D01*
X23447619Y-77100000D01*
X23409524Y-77138095D01*
X23371429Y-77214286D01*
X23371429Y-77404762D01*
X23409524Y-77480952D01*
X23447619Y-77519048D01*
X23523810Y-77557143D01*
X23676191Y-77557143D01*
X23752381Y-77519048D01*
X23790477Y-77480952D01*
X23828572Y-77404762D01*
X23761905Y-83521429D02*
X22961905Y-83521429D01*
X22961905Y-83330953D01*
X23000000Y-83216667D01*
X23076190Y-83140476D01*
X23152381Y-83102381D01*
X23304762Y-83064286D01*
X23419048Y-83064286D01*
X23571429Y-83102381D01*
X23647619Y-83140476D01*
X23723810Y-83216667D01*
X23761905Y-83330953D01*
X23761905Y-83521429D01*
X23761905Y-82302381D02*
X23761905Y-82759524D01*
X23761905Y-82530953D02*
X22961905Y-82530953D01*
X23076190Y-82607143D01*
X23152381Y-82683334D01*
X23190476Y-82759524D01*
X22961905Y-81807143D02*
X22961905Y-81730952D01*
X23000000Y-81654762D01*
X23038095Y-81616667D01*
X23114286Y-81578571D01*
X23266667Y-81540476D01*
X23457143Y-81540476D01*
X23609524Y-81578571D01*
X23685714Y-81616667D01*
X23723810Y-81654762D01*
X23761905Y-81730952D01*
X23761905Y-81807143D01*
X23723810Y-81883333D01*
X23685714Y-81921429D01*
X23609524Y-81959524D01*
X23457143Y-81997619D01*
X23266667Y-81997619D01*
X23114286Y-81959524D01*
X23038095Y-81921429D01*
X23000000Y-81883333D01*
X22961905Y-81807143D01*
X35561905Y-83414286D02*
X35180952Y-83680953D01*
X35561905Y-83871429D02*
X34761905Y-83871429D01*
X34761905Y-83566667D01*
X34800000Y-83490476D01*
X34838095Y-83452381D01*
X34914286Y-83414286D01*
X35028571Y-83414286D01*
X35104762Y-83452381D01*
X35142857Y-83490476D01*
X35180952Y-83566667D01*
X35180952Y-83871429D01*
X34838095Y-83109524D02*
X34800000Y-83071429D01*
X34761905Y-82995238D01*
X34761905Y-82804762D01*
X34800000Y-82728572D01*
X34838095Y-82690476D01*
X34914286Y-82652381D01*
X34990476Y-82652381D01*
X35104762Y-82690476D01*
X35561905Y-83147619D01*
X35561905Y-82652381D01*
X35028571Y-81966667D02*
X35561905Y-81966667D01*
X34723810Y-82157143D02*
X35295238Y-82347619D01*
X35295238Y-81852381D01*
M02*
