M48
;DRILL file {KiCad 4.0.7} date 05/25/18 22:13:04
;FORMAT={-:-/ absolute / metric / decimal}
FMAT,2
METRIC,TZ
T1C0.300
T2C0.650
T3C0.700
T4C0.762
T5C0.800
T6C0.900
T7C1.000
T8C1.400
T9C3.200
T10C8.500
%
G90
G05
M71
T1
X23.055Y-68.655
X23.178Y-67.578
X23.6Y-124.4
X23.6Y-127.8
X24.3Y-70.
X24.914Y-69.342
X25.8Y-85.3
X26.6Y-64.7
X26.7Y-127.3
X27.7Y-63.2
X29.7Y-85.3
X30.4Y-119.3
X30.4Y-121.6
X30.4Y-124.7
X30.6Y-122.6
X32.Y-51.
X32.6Y-80.2
X32.95Y-120.15
X33.2Y-61.2
X33.6Y-122.2
X34.Y-76.8
X34.8Y-53.4
X35.2Y-117.8
X35.6Y-74.6
X35.904Y-114.78
X36.219Y-117.928
X36.803Y-114.825
X37.352Y-117.75
X37.703Y-114.825
X38.447Y-117.762
X38.6Y-75.3
X39.Y-81.8
X41.1Y-63.
X41.35Y-135.25
X42.9Y-58.1
X43.334Y-53.172
X43.54Y-61.74
X43.7Y-54.1
X44.3Y-63.
X44.35Y-60.4
X45.45Y-87.733
X45.45Y-88.721
X45.548Y-82.97
X45.575Y-84.949
X45.631Y-84.
X45.803Y-85.874
X46.05Y-60.4
X46.2Y-56.4
X46.275Y-55.424
X46.8Y-62.8
X50.6Y-70.
X50.75Y-86.15
X50.8Y-67.025
X50.898Y-85.199
X50.993Y-83.213
X51.045Y-84.161
X51.2Y-122.
X51.78Y-85.02
X52.192Y-89.327
X52.8Y-118.4
X53.Y-83.4
X53.083Y-72.253
X53.175Y-86.2
X54.Y-79.2
X54.092Y-68.859
X54.982Y-66.849
X55.302Y-68.898
X55.4Y-118.4
X55.6Y-74.8
X55.93Y-66.798
X56.6Y-88.8
X56.601Y-77.264
X56.7Y-92.125
X56.7Y-93.575
X57.3Y-79.
X57.3Y-80.3
X57.326Y-77.937
X57.8Y-86.6
X58.Y-118.4
X58.073Y-88.25
X58.273Y-80.43
X58.3Y-64.575
X58.9Y-79.
X59.Y-88.
X59.058Y-72.005
X59.4Y-122.
X59.724Y-68.498
X59.807Y-67.552
X60.56Y-73.506
X60.6Y-79.3
X60.8Y-88.25
X61.285Y-72.861
X61.406Y-66.706
X62.298Y-82.004
X62.3Y-87.2
X62.4Y-90.6
X63.Y-86.3
X63.627Y-83.573
X64.35Y-92.95
X65.017Y-82.658
X65.1Y-83.6
X65.277Y-81.783
X65.4Y-79.2
X65.97Y-71.97
X66.Y-68.6
X66.075Y-80.3
X66.5Y-77.3
X66.5Y-88.4
X66.579Y-84.811
X66.8Y-52.5
X66.8Y-91.5
X67.044Y-85.582
X67.425Y-80.591
X67.835Y-81.575
X68.116Y-84.075
X68.2Y-105.3
X68.25Y-78.6
X68.3Y-73.
X68.303Y-80.125
X68.6Y-98.8
X68.6Y-99.7
X70.Y-91.5
X70.301Y-57.006
X71.6Y-53.2
X72.Y-56.6
X72.1Y-88.4
X72.4Y-59.8
X72.5Y-109.5
X72.6Y-99.8
X72.6Y-98.8
X73.05Y-79.925
X73.905Y-70.955
X74.6Y-76.868
X74.7Y-61.
X75.7Y-81.4
X77.025Y-59.625
X78.415Y-54.401
X82.1Y-49.
X83.3Y-62.8
X83.721Y-50.374
X84.285Y-74.756
X84.8Y-71.7
X85.2Y-74.5
X87.879Y-72.228
X87.9Y-71.
X88.Y-56.5
X90.2Y-55.8
X91.601Y-57.4
X92.7Y-109.7
X94.1Y-60.855
X96.Y-81.2
X98.Y-103.
X100.Y-93.
X101.Y-92.
X101.25Y-100.125
X102.Y-91.
X102.2Y-100.125
X102.8Y-64.
X102.8Y-66.7
X102.8Y-105.4
X103.Y-79.4
X103.Y-81.
X103.Y-82.6
X103.Y-84.2
X103.Y-85.8
X103.Y-87.2
X103.Y-88.6
X103.Y-90.
X103.8Y-60.4
X104.Y-117.5
X106.6Y-116.4
X107.4Y-82.6
X107.4Y-84.2
X107.4Y-85.8
X107.4Y-87.2
X107.4Y-88.6
X107.4Y-90.
X107.5Y-101.
X108.4Y-67.6
X112.8Y-119.6
X114.4Y-119.
X114.75Y-123.25
T2
X24.8Y-73.
X24.8Y-87.
X26.8Y-73.
X26.8Y-87.
X28.8Y-73.
X28.8Y-87.
X30.8Y-73.
X30.8Y-87.
X32.8Y-73.
X32.8Y-87.
X34.8Y-73.
X34.8Y-87.
X36.8Y-73.
X36.8Y-87.
X38.8Y-73.
X38.8Y-87.
T3
X42.8Y-67.
X91.1Y-54.1
X103.8Y-58.95
T4
X100.79Y-97.09
X103.33Y-97.09
T5
X23.4Y-63.8
X38.8Y-91.3
X44.55Y-90.35
X51.435Y-92.71
X66.Y-62.5
X66.9Y-86.9
X68.25Y-101.1
X68.325Y-103.
X69.9Y-86.9
X70.5Y-62.5
X71.9Y-103.35
X73.1Y-62.5
X74.9Y-99.8
X77.2Y-62.5
X77.4Y-89.33
X77.4Y-91.87
X81.6Y-65.95
X87.1Y-88.
X99.9Y-102.6
X101.Y-55.22
X101.Y-57.76
X101.Y-60.3
X101.Y-62.84
X101.Y-65.38
X101.Y-67.92
X101.Y-70.46
X101.Y-73.
X102.06Y-95.82
X103.2Y-77.8
X105.33Y-94.6
X107.8Y-103.2
X107.8Y-105.74
X107.87Y-94.6
X109.Y-71.73
X109.Y-74.27
X117.2Y-71.73
X117.2Y-74.27
X118.5Y-81.4
T6
X24.Y-111.9
X24.003Y-91.313
X25.5Y-56.46
X25.5Y-59.
X26.86Y-69.1
X29.16Y-91.3
X29.4Y-69.1
X30.34Y-56.2
X31.7Y-91.3
X31.94Y-69.1
X32.82Y-131.1
X32.88Y-56.2
X34.24Y-91.3
X34.48Y-69.1
X35.32Y-50.2
X35.36Y-131.1
X35.42Y-56.2
X37.02Y-69.1
X37.86Y-50.2
X37.9Y-131.1
X37.96Y-56.2
X40.4Y-50.2
X40.44Y-131.1
X40.5Y-56.2
X42.94Y-50.2
X42.98Y-131.1
X43.04Y-56.2
X46.82Y-50.1
X48.61Y-131.
X49.36Y-50.1
X51.15Y-131.
X51.9Y-50.1
X52.07Y-102.87
X52.07Y-105.41
X52.86Y-112.4
X53.69Y-131.
X54.44Y-50.1
X54.61Y-102.87
X54.61Y-105.41
X55.4Y-112.4
X56.23Y-131.
X57.15Y-102.87
X57.15Y-105.41
X57.94Y-112.4
X58.77Y-131.
X59.69Y-102.87
X59.69Y-105.41
X61.13Y-51.
X61.31Y-131.
X62.23Y-102.87
X62.23Y-105.41
X63.67Y-51.
X63.85Y-131.
X66.04Y-116.84
X66.04Y-119.38
X66.39Y-131.
X68.58Y-111.76
X68.58Y-114.3
X68.58Y-116.84
X68.58Y-119.38
X68.58Y-121.92
X70.12Y-50.
X71.12Y-111.76
X71.12Y-114.3
X71.12Y-116.84
X71.12Y-119.38
X71.12Y-121.92
X71.12Y-124.46
X71.12Y-127.
X72.66Y-50.
X73.66Y-111.76
X73.66Y-114.3
X73.66Y-116.84
X73.66Y-119.38
X73.66Y-121.92
X73.66Y-124.46
X73.66Y-127.
X73.66Y-129.54
X73.66Y-132.08
X74.1Y-83.
X74.1Y-85.54
X74.1Y-94.04
X74.1Y-96.54
X75.2Y-50.
X76.2Y-111.76
X76.2Y-114.3
X76.2Y-116.84
X76.2Y-119.38
X76.2Y-121.92
X76.2Y-124.46
X76.2Y-127.
X76.2Y-129.54
X76.2Y-132.08
X76.486Y-74.593
X76.486Y-68.593
X76.486Y-71.593
X76.486Y-77.593
X77.74Y-50.
X78.74Y-111.76
X78.74Y-114.3
X78.74Y-116.84
X78.74Y-119.38
X78.74Y-121.92
X78.74Y-124.46
X78.74Y-127.
X78.74Y-129.54
X78.74Y-132.08
X79.026Y-74.593
X79.026Y-68.593
X79.026Y-71.593
X79.026Y-77.593
X80.28Y-50.
X81.Y-61.9
X81.28Y-111.76
X81.28Y-114.3
X81.28Y-116.84
X81.28Y-119.38
X81.28Y-121.92
X81.28Y-124.46
X81.28Y-127.
X81.28Y-129.54
X81.28Y-132.08
X81.566Y-74.593
X81.566Y-68.593
X81.566Y-71.593
X81.566Y-77.593
X83.82Y-111.76
X83.82Y-114.3
X83.82Y-116.84
X83.82Y-119.38
X83.82Y-121.92
X83.82Y-124.46
X83.82Y-127.
X83.82Y-129.54
X83.82Y-132.08
X86.36Y-111.76
X86.36Y-114.3
X86.36Y-116.84
X86.36Y-119.38
X86.36Y-121.92
X86.36Y-124.46
X86.36Y-127.
X86.36Y-129.54
X86.36Y-132.08
X88.9Y-111.76
X88.9Y-114.3
X88.9Y-116.84
X88.9Y-119.38
X88.9Y-121.92
X88.9Y-124.46
X88.9Y-127.
X88.9Y-129.54
X88.9Y-132.08
X91.44Y-111.76
X91.44Y-114.3
X91.44Y-116.84
X91.44Y-119.38
X91.44Y-121.92
X91.44Y-124.46
X91.44Y-127.
X91.44Y-129.54
X91.44Y-132.08
X92.6Y-82.96
X92.6Y-85.5
X92.6Y-94.
X92.6Y-96.54
X93.98Y-111.76
X93.98Y-114.3
X93.98Y-116.84
X93.98Y-119.38
X93.98Y-121.92
X93.98Y-124.46
X93.98Y-127.
X93.98Y-129.54
X93.98Y-132.08
X95.8Y-55.7
X96.52Y-116.84
X96.52Y-119.38
X96.52Y-121.92
X96.52Y-124.46
X96.52Y-127.
X96.52Y-129.54
X96.52Y-132.08
X98.25Y-79.31
X98.25Y-81.85
X98.25Y-84.39
X98.25Y-86.93
X98.25Y-89.47
X98.25Y-92.01
X98.25Y-94.55
X98.25Y-97.09
X99.06Y-121.92
X99.06Y-124.46
X99.06Y-127.
X99.06Y-129.54
X99.06Y-132.08
X100.98Y-51.
X101.6Y-124.46
X101.6Y-127.
X103.52Y-51.
X104.061Y-113.756
X106.601Y-113.756
X107.73Y-51.
X110.27Y-51.
X110.95Y-79.31
X110.95Y-81.85
X110.95Y-84.39
X110.95Y-86.93
X110.95Y-89.47
X110.95Y-92.01
X110.95Y-94.55
X110.95Y-97.09
X111.3Y-135.8
X114.1Y-96.6
X116.8Y-84.46
X116.8Y-87.
X116.8Y-89.54
X116.8Y-92.08
X116.8Y-100.6
X116.8Y-103.14
X116.8Y-105.68
X116.8Y-110.6
X116.8Y-113.14
X116.8Y-115.68
X116.8Y-118.22
X116.8Y-121.86
X116.8Y-124.4
X116.8Y-126.94
X118.5Y-78.9
X119.2Y-124.4
T7
X40.36Y-106.02
X40.36Y-108.56
X40.36Y-111.1
X40.36Y-113.64
X40.36Y-116.18
X40.36Y-118.72
X40.36Y-121.26
X40.36Y-123.8
X42.9Y-106.02
X42.9Y-108.56
X42.9Y-111.1
X42.9Y-113.64
X42.9Y-116.18
X42.9Y-118.72
X42.9Y-121.26
X42.9Y-123.8
X89.098Y-75.3
X101.531Y-113.756
X109.131Y-113.756
X113.2Y-101.16
X113.2Y-107.51
T8
X115.7Y-58.5
X115.7Y-63.58
T9
X26.Y-51.
X26.Y-133.
X117.Y-51.
X117.Y-133.
T10
X30.5Y-103.5
T0
M30
